<?xml version="1.0" encoding="UTF-8" standalone="no"?>
<!-- Created with Inkscape (http://www.inkscape.org/) -->

<svg
   xmlns:dc="http://purl.org/dc/elements/1.1/"
   xmlns:cc="http://creativecommons.org/ns#"
   xmlns:rdf="http://www.w3.org/1999/02/22-rdf-syntax-ns#"
   xmlns:svg="http://www.w3.org/2000/svg"
   xmlns="http://www.w3.org/2000/svg"
   xmlns:xlink="http://www.w3.org/1999/xlink"
   xmlns:sodipodi="http://sodipodi.sourceforge.net/DTD/sodipodi-0.dtd"
   xmlns:inkscape="http://www.inkscape.org/namespaces/inkscape"
   width="210mm"
   height="297mm"
   viewBox="0 0 210 297"
   version="1.1"
   id="svg8"
   inkscape:version="0.92.4 (f8dce91, 2019-08-02)"
   sodipodi:docname="farzone_base.svg">
  <defs
     id="defs2">
    <linearGradient
       inkscape:collect="always"
       id="linearGradient3091">
      <stop
         style="stop-color:#bfa36f;stop-opacity:1;"
         offset="0"
         id="stop3087" />
      <stop
         style="stop-color:#bfa36f;stop-opacity:0;"
         offset="1"
         id="stop3089" />
    </linearGradient>
    <linearGradient
       inkscape:collect="always"
       xlink:href="#linearGradient3091"
       id="linearGradient3093"
       x1="54.248823"
       y1="94.333898"
       x2="81.680863"
       y2="94.333898"
       gradientUnits="userSpaceOnUse" />
  </defs>
  <sodipodi:namedview
     id="base"
     pagecolor="#ffffff"
     bordercolor="#666666"
     borderopacity="1.0"
     inkscape:pageopacity="0.0"
     inkscape:pageshadow="2"
     inkscape:zoom="2.8"
     inkscape:cx="285.27643"
     inkscape:cy="783.22893"
     inkscape:document-units="mm"
     inkscape:current-layer="layer1"
     showgrid="false"
     inkscape:window-width="1533"
     inkscape:window-height="845"
     inkscape:window-x="67"
     inkscape:window-y="27"
     inkscape:window-maximized="1"
     inkscape:snap-bbox="false"
     inkscape:snap-global="true" />
  <metadata
     id="metadata5">
    <rdf:RDF>
      <cc:Work
         rdf:about="">
        <dc:format>image/svg+xml</dc:format>
        <dc:type
           rdf:resource="http://purl.org/dc/dcmitype/StillImage" />
        <dc:title></dc:title>
      </cc:Work>
    </rdf:RDF>
  </metadata>
  <g
     inkscape:label="Capa 1"
     inkscape:groupmode="layer"
     id="layer1">
    <path
       style="fill:#bfa36f;stroke:#000000;stroke-width:0.26458332px;stroke-linecap:butt;stroke-linejoin:miter;stroke-opacity:1;fill-opacity:1"
       d="m 57.357885,83.963168 0.0945,26.836312 27.356025,-0.0473 V 83.963168 Z"
       id="path29"
       inkscape:connector-curvature="0" />
    <path
       style="fill:url(#linearGradient3093);stroke:#000000;stroke-width:0.265;stroke-linecap:square;stroke-linejoin:round;stroke-opacity:1;fill-opacity:1;stroke-miterlimit:4;stroke-dasharray:none;paint-order:stroke fill markers"
       d="m 54.381323,107.11421 27.16704,0.0945 -0.141742,-25.749623 H 54.475819 Z"
       id="path31"
       inkscape:connector-curvature="0" />
    <path
       style="fill:none;stroke:#fcfcfc;stroke-width:0.26458332px;stroke-linecap:butt;stroke-linejoin:miter;stroke-opacity:1"
       d="m 57.797035,106.80432 c 1.537011,-5.01205 3.295378,-9.9049 5.980155,-14.298918 z"
       id="path33"
       inkscape:connector-curvature="0"
       sodipodi:nodetypes="ccc" />
    <path
       style="fill:#bfa36f;stroke:#fefefe;stroke-width:0.26458332px;stroke-linecap:butt;stroke-linejoin:miter;stroke-opacity:1;fill-opacity:1"
       d="m 57.797035,106.80432 c 4.229914,-10.470494 8.391592,-21.850787 13.396883,-21.982918 2.382506,0.286762 5.203707,2.187298 10.056016,11.559407 l 0.298429,10.827901 z"
       id="path35"
       inkscape:connector-curvature="0"
       sodipodi:nodetypes="ccccc" />
    <path
       style="fill:#ff6600;fill-opacity:0;stroke-width:0.25253814"
       d="m 282.56688,404.16633 c -13.40346,-0.2405 -33.06355,-0.58025 -43.6891,-0.75499 -10.62554,-0.17474 -19.35109,-0.34392 -19.39011,-0.37594 -0.22082,-0.18124 19.75315,-47.32467 21.69524,-51.20604 8.02839,-16.04519 14.81701,-25.05649 21.70372,-28.80978 4.21758,-2.2986 7.73776,-2.23778 12.6175,0.21799 5.45423,2.7449 12.21859,9.94392 18.74147,19.94578 3.71146,5.69097 8.15429,13.37892 11.23742,19.44543 l 1.02676,2.02031 0.4062,15.78363 c 0.22341,8.681 0.47825,17.68714 0.5663,20.01365 0.13393,3.53854 0.10243,4.22407 -0.19269,4.19363 -0.19403,-0.02 -11.31925,-0.23317 -24.72271,-0.47367 z"
       id="path37"
       inkscape:connector-curvature="0"
       transform="scale(0.26458333)" />
    <path
       style="fill:#ff6600;fill-opacity:0;stroke-width:0.25253814"
       d="m 282.56688,404.16633 c -13.40346,-0.2405 -33.06355,-0.58025 -43.6891,-0.75499 -10.62554,-0.17474 -19.35109,-0.34392 -19.39011,-0.37594 -0.22082,-0.18124 19.75315,-47.32467 21.69524,-51.20604 8.02839,-16.04519 14.81701,-25.05649 21.70372,-28.80978 4.21758,-2.2986 7.73776,-2.23778 12.6175,0.21799 5.45423,2.7449 12.21859,9.94392 18.74147,19.94578 3.71146,5.69097 8.15429,13.37892 11.23742,19.44543 l 1.02676,2.02031 0.4062,15.78363 c 0.22341,8.681 0.47825,17.68714 0.5663,20.01365 0.13393,3.53854 0.10243,4.22407 -0.19269,4.19363 -0.19403,-0.02 -11.31925,-0.23317 -24.72271,-0.47367 z"
       id="path39"
       inkscape:connector-curvature="0"
       transform="scale(0.26458333)" />
    <path
       style="fill:#ff6600;fill-opacity:0;stroke-width:0.25253814"
       d="m 217.66458,411.77622 v -6.28468 l 41.60566,0.0998 c 22.88311,0.0549 43.40817,0.14107 45.61125,0.1915 l 4.00559,0.0917 -0.15504,-24.77961 c -0.0853,-13.62879 -0.22431,-33.388 -0.30898,-43.90937 l -0.15393,-19.12977 h 5.8367 5.83669 v 50.00255 50.00255 h -51.13897 -51.13897 z"
       id="path41"
       inkscape:connector-curvature="0"
       transform="scale(0.26458333)" />
    <path
       style="fill:#ff6600;fill-opacity:0;stroke-width:0.25253814"
       d="m 217.66458,411.77622 v -6.28468 l 41.60566,0.0998 c 22.88311,0.0549 43.40817,0.14107 45.61125,0.1915 l 4.00559,0.0917 -0.15504,-24.77961 c -0.0853,-13.62879 -0.22431,-33.388 -0.30898,-43.90937 l -0.15393,-19.12977 h 5.8367 5.83669 v 50.00255 50.00255 h -51.13897 -51.13897 z"
       id="path43"
       inkscape:connector-curvature="0"
       transform="scale(0.26458333)" />
    <path
       style="fill:#ff6600;fill-opacity:0;stroke-width:0.25253814"
       d="m 217.66458,411.77622 v -6.28468 l 41.60566,0.0998 c 22.88311,0.0549 43.40817,0.14107 45.61125,0.1915 l 4.00559,0.0917 -0.15504,-24.77961 c -0.0853,-13.62879 -0.22431,-33.388 -0.30898,-43.90937 l -0.15393,-19.12977 h 5.8367 5.83669 v 50.00255 50.00255 h -51.13897 -51.13897 z"
       id="path45"
       inkscape:connector-curvature="0"
       transform="scale(0.26458333)" />
    <path
       style="fill:#ff6600;fill-opacity:0;stroke-width:0.25253814"
       d="m 217.66458,411.77622 v -6.28468 l 41.60566,0.0998 c 22.88311,0.0549 43.40817,0.14107 45.61125,0.1915 l 4.00559,0.0917 -0.15504,-24.77961 c -0.0853,-13.62879 -0.22431,-33.388 -0.30898,-43.90937 l -0.15393,-19.12977 h 5.8367 5.83669 v 50.00255 50.00255 h -51.13897 -51.13897 z"
       id="path47"
       inkscape:connector-curvature="0"
       transform="scale(0.26458333)" />
    <path
       style="fill:#ff6600;fill-opacity:0;stroke-width:0.25253814"
       d="m 217.66458,411.77622 v -6.28468 l 41.60566,0.0998 c 22.88311,0.0549 43.40817,0.14107 45.61125,0.1915 l 4.00559,0.0917 -0.15504,-24.77961 c -0.0853,-13.62879 -0.22431,-33.388 -0.30898,-43.90937 l -0.15393,-19.12977 h 5.8367 5.83669 v 50.00255 50.00255 h -51.13897 -51.13897 z"
       id="path49"
       inkscape:connector-curvature="0"
       transform="scale(0.26458333)" />
    <path
       style="fill:#ff6600;fill-opacity:0;stroke-width:0.25253814"
       d="m 217.66458,411.77622 v -6.28468 l 41.60566,0.0998 c 22.88311,0.0549 43.40817,0.14107 45.61125,0.1915 l 4.00559,0.0917 -0.15504,-24.77961 c -0.0853,-13.62879 -0.22431,-33.388 -0.30898,-43.90937 l -0.15393,-19.12977 h 5.8367 5.83669 v 50.00255 50.00255 h -51.13897 -51.13897 z"
       id="path51"
       inkscape:connector-curvature="0"
       transform="scale(0.26458333)" />
    <path
       style="fill:#d45500;fill-opacity:0;stroke-width:0.25253814"
       d="m 217.66458,411.77622 v -6.28468 l 41.60566,0.0998 c 22.88311,0.0549 43.40817,0.14107 45.61125,0.1915 l 4.00559,0.0917 -0.15504,-24.77961 c -0.0853,-13.62879 -0.22431,-33.388 -0.30898,-43.90937 l -0.15393,-19.12977 h 5.8367 5.83669 v 50.00255 50.00255 h -51.13897 -51.13897 z"
       id="path53"
       inkscape:connector-curvature="0"
       transform="scale(0.26458333)" />
    <path
       style="fill:#d45500;fill-opacity:0;stroke-width:0.25253814"
       d="m 217.66458,411.77622 v -6.28468 l 41.60566,0.0998 c 22.88311,0.0549 43.40817,0.14107 45.61125,0.1915 l 4.00559,0.0917 -0.15504,-24.77961 c -0.0853,-13.62879 -0.22431,-33.388 -0.30898,-43.90937 l -0.15393,-19.12977 h 5.8367 5.83669 v 50.00255 50.00255 h -51.13897 -51.13897 z"
       id="path55"
       inkscape:connector-curvature="0"
       transform="scale(0.26458333)" />
    <path
       style="fill:#d45500;fill-opacity:0;stroke-width:0.25253814"
       d="m 217.66458,411.77622 v -6.28468 l 41.60566,0.0998 c 22.88311,0.0549 43.40817,0.14107 45.61125,0.1915 l 4.00559,0.0917 -0.15504,-24.77961 c -0.0853,-13.62879 -0.22431,-33.388 -0.30898,-43.90937 l -0.15393,-19.12977 h 5.8367 5.83669 v 50.00255 50.00255 h -51.13897 -51.13897 z"
       id="path57"
       inkscape:connector-curvature="0"
       transform="scale(0.26458333)" />
    <path
       style="fill:#d45500;fill-opacity:0;stroke-width:0.25253814"
       d="m 282.56688,404.16633 c -13.40346,-0.2405 -33.06355,-0.58025 -43.6891,-0.75499 -10.62554,-0.17474 -19.35109,-0.34392 -19.39011,-0.37594 -0.22082,-0.18124 19.75315,-47.32467 21.69524,-51.20604 8.02839,-16.04519 14.81701,-25.05649 21.70372,-28.80978 4.21758,-2.2986 7.73776,-2.23778 12.6175,0.21799 5.45423,2.7449 12.21859,9.94392 18.74147,19.94578 3.71146,5.69097 8.15429,13.37892 11.23742,19.44543 l 1.02676,2.02031 0.4062,15.78363 c 0.22341,8.681 0.47825,17.68714 0.5663,20.01365 0.13393,3.53854 0.10243,4.22407 -0.19269,4.19363 -0.19403,-0.02 -11.31925,-0.23317 -24.72271,-0.47367 z"
       id="path59"
       inkscape:connector-curvature="0"
       transform="scale(0.26458333)" />
    <path
       style="fill:#d45500;fill-opacity:0;stroke-width:0.25253814"
       d="m 217.66446,389.50305 c -7e-5,-7.83605 -0.0757,-27.11733 -0.16799,-42.8473 L 217.3286,318.0558 h 44.83717 44.83716 l 0.17312,13.19512 c 0.0952,7.25731 0.13716,17.39988 0.0932,22.53903 l -0.0799,9.34391 -1.74029,-3.283 c -11.26217,-21.24576 -21.13052,-33.7862 -29.82698,-37.90335 -4.89708,-2.31841 -8.13378,-2.45633 -12.34968,-0.52623 -4.61172,2.11132 -9.79846,7.29716 -14.63904,14.63651 -2.04534,3.10117 -5.43667,8.92986 -6.7488,11.59918 -0.45844,0.93264 -0.9931,1.72814 -1.18813,1.76777 -0.73769,0.14992 -6.7776,11.45669 -10.04248,18.79964 -3.70777,8.33904 -8.21149,20.50014 -11.34851,30.64363 -0.79468,2.56957 -1.48897,4.7193 -1.54287,4.77718 -0.0539,0.0579 -0.0981,-6.30609 -0.0981,-14.14214 z"
       id="path61"
       inkscape:connector-curvature="0"
       transform="scale(0.26458333)" />
    <path
       style="fill:#d45500;fill-opacity:0;stroke-width:0.25253814"
       d="m 206.23295,378.09678 c 0.0324,-14.34103 0.1314,-35.87623 0.22006,-47.85601 l 0.16121,-21.78142 h 50.22443 50.22443 v 4.16688 4.16688 h -45.46209 -45.46208 l 0.17314,43.6891 0.17314,43.6891 -5.15555,4e-5 -5.15555,4e-5 z"
       id="path63"
       inkscape:connector-curvature="0"
       transform="scale(0.26458333)" />
    <path
       style="fill:#d45500;fill-opacity:0;stroke-width:0.25253814"
       d="m 217.66446,389.50305 c -7e-5,-7.83605 -0.0757,-27.11733 -0.16799,-42.8473 L 217.3286,318.0558 h 44.83717 44.83716 l 0.17312,13.19512 c 0.0952,7.25731 0.13716,17.39988 0.0932,22.53903 l -0.0799,9.34391 -1.74029,-3.283 c -11.26217,-21.24576 -21.13052,-33.7862 -29.82698,-37.90335 -4.89708,-2.31841 -8.13378,-2.45633 -12.34968,-0.52623 -4.61172,2.11132 -9.79846,7.29716 -14.63904,14.63651 -2.04534,3.10117 -5.43667,8.92986 -6.7488,11.59918 -0.45844,0.93264 -0.9931,1.72814 -1.18813,1.76777 -0.73769,0.14992 -6.7776,11.45669 -10.04248,18.79964 -3.70777,8.33904 -8.21149,20.50014 -11.34851,30.64363 -0.79468,2.56957 -1.48897,4.7193 -1.54287,4.77718 -0.0539,0.0579 -0.0981,-6.30609 -0.0981,-14.14214 z"
       id="path65"
       inkscape:connector-curvature="0"
       transform="scale(0.26458333)" />
    <path
       style="fill:#d45500;fill-opacity:0;stroke-width:0.25253814"
       d="m 206.23295,378.09678 c 0.0324,-14.34103 0.1314,-35.87623 0.22006,-47.85601 l 0.16121,-21.78142 h 50.22443 50.22443 v 4.16688 4.16688 h -45.46209 -45.46208 l 0.17314,43.6891 0.17314,43.6891 -5.15555,4e-5 -5.15555,4e-5 z"
       id="path67"
       inkscape:connector-curvature="0"
       transform="scale(0.26458333)" />
    <path
       style="fill:#d45500;fill-opacity:0;stroke-width:0.25253814"
       d="m 206.23295,378.09678 c 0.0324,-14.34103 0.1314,-35.87623 0.22006,-47.85601 l 0.16121,-21.78142 h 50.22443 50.22443 v 4.16688 4.16688 h -45.46209 -45.46208 l 0.17314,43.6891 0.17314,43.6891 -5.15555,4e-5 -5.15555,4e-5 z"
       id="path69"
       inkscape:connector-curvature="0"
       transform="scale(0.26458333)" />
    <path
       style="fill:#d45500;fill-opacity:0;stroke-width:0.25253814"
       d="m 206.23295,378.09678 c 0.0324,-14.34103 0.1314,-35.87623 0.22006,-47.85601 l 0.16121,-21.78142 h 50.22443 50.22443 v 4.16688 4.16688 h -45.46209 -45.46208 l 0.17314,43.6891 0.17314,43.6891 -5.15555,4e-5 -5.15555,4e-5 z"
       id="path71"
       inkscape:connector-curvature="0"
       transform="scale(0.26458333)" />
    <path
       style="fill:#d45500;fill-opacity:0;stroke-width:0.25253814"
       d="m 206.23295,378.09678 c 0.0324,-14.34103 0.1314,-35.87623 0.22006,-47.85601 l 0.16121,-21.78142 h 50.22443 50.22443 v 4.16688 4.16688 h -45.46209 -45.46208 l 0.17314,43.6891 0.17314,43.6891 -5.15555,4e-5 -5.15555,4e-5 z"
       id="path73"
       inkscape:connector-curvature="0"
       transform="scale(0.26458333)" />
    <path
       style="fill:#d45500;fill-opacity:0;stroke-width:0.25253814"
       d="m 217.60933,374.27646 c -0.01,-16.25083 -0.0926,-35.59872 -0.18468,-42.99531 l -0.16733,-13.44836 44.92997,0.0638 44.92998,0.0638 0.0618,22.60216 0.0618,22.60216 -2.17097,-4.04061 c -9.11168,-16.9586 -17.0581,-28.05197 -24.38122,-34.03669 -3.38911,-2.7697 -8.62171,-5.0123 -11.69381,-5.01174 -8.39102,0.002 -17.17132,8.80168 -26.67302,26.73332 -0.75326,1.42155 -1.49403,2.58638 -1.64617,2.58852 -0.2572,0.004 -2.79505,4.33002 -5.48337,9.34779 -4.63675,8.65453 -10.43946,23.14652 -15.06664,37.62818 -1.13169,3.54185 -2.15692,6.667 -2.27829,6.9448 -0.12763,0.29209 -0.228,-11.95429 -0.23803,-29.04189 z"
       id="path94"
       inkscape:connector-curvature="0"
       transform="scale(0.26458333)" />
    <path
       style="fill:#d45500;fill-opacity:0;stroke-width:0.25253814"
       d="m 269.61535,403.94055 c -13.40346,-0.24336 -30.18565,-0.52853 -37.29375,-0.63371 l -12.92382,-0.19124 0.46151,-1.16132 c 4.09769,-10.31111 19.30742,-46.05562 21.34102,-50.15371 9.37091,-18.88416 17.62276,-28.57614 25.80511,-30.30866 2.00966,-0.42553 3.69463,-0.21642 6.38071,0.79186 9.11778,3.42257 19.30939,16.07518 31.40577,38.98943 l 1.66773,3.15918 0.51871,18.30656 c 0.28529,10.06861 0.51849,19.07365 0.51822,20.0112 l -4.9e-4,1.70463 -6.75539,-0.0359 c -3.71547,-0.0197 -17.72187,-0.23499 -31.12533,-0.47835 z"
       id="path96"
       inkscape:connector-curvature="0"
       transform="scale(0.26458333)" />
    <path
       style="fill:#d45500;fill-opacity:0;stroke-width:0.25253814"
       d="m 206.22828,387.4503 c 0,-9.21355 0.0756,-30.74874 0.16802,-47.85597 l 0.16802,-31.10405 h 50.21334 50.21334 v 4.16688 4.16687 h -45.4108 -45.41078 l 0.0808,28.97876 c 0.0444,15.93831 0.11612,35.5984 0.15927,43.68909 l 0.0785,14.71035 h -5.12984 -5.12984 z"
       id="path98"
       inkscape:connector-curvature="0"
       transform="scale(0.26458333)" />
    <path
       style="fill:#d45500;fill-opacity:0;stroke-width:0.25253814"
       d="m 217.84503,413.33065 c 0,-2.61865 -0.0724,-5.45351 -0.1608,-6.29969 l -0.16081,-1.53852 45.64648,0.15353 45.64647,0.15352 -0.15699,-38.23741 c -0.0863,-21.03057 -0.22497,-40.82277 -0.30804,-43.98265 l -0.15105,-5.74524 h 5.83507 5.83508 v 50.12882 50.12882 h -51.0127 -51.01271 z"
       id="path100"
       inkscape:connector-curvature="0"
       transform="scale(0.26458333)" />
    <path
       style="fill:#d45500;fill-opacity:0;stroke-width:0.25253814"
       d="m 269.61535,403.94055 c -13.40346,-0.24336 -30.18565,-0.52853 -37.29375,-0.63371 l -12.92382,-0.19124 0.46151,-1.16132 c 4.09769,-10.31111 19.30742,-46.05562 21.34102,-50.15371 9.37091,-18.88416 17.62276,-28.57614 25.80511,-30.30866 2.00966,-0.42553 3.69463,-0.21642 6.38071,0.79186 9.11778,3.42257 19.30939,16.07518 31.40577,38.98943 l 1.66773,3.15918 0.51871,18.30656 c 0.28529,10.06861 0.51849,19.07365 0.51822,20.0112 l -4.9e-4,1.70463 -6.75539,-0.0359 c -3.71547,-0.0197 -17.72187,-0.23499 -31.12533,-0.47835 z"
       id="path102"
       inkscape:connector-curvature="0"
       transform="scale(0.26458333)" />
    <path
       style="fill:#d45500;fill-opacity:0;stroke-width:0.25253814"
       d="m 269.61535,403.94055 c -13.40346,-0.24336 -30.18565,-0.52853 -37.29375,-0.63371 l -12.92382,-0.19124 0.46151,-1.16132 c 4.09769,-10.31111 19.30742,-46.05562 21.34102,-50.15371 9.37091,-18.88416 17.62276,-28.57614 25.80511,-30.30866 2.00966,-0.42553 3.69463,-0.21642 6.38071,0.79186 9.11778,3.42257 19.30939,16.07518 31.40577,38.98943 l 1.66773,3.15918 0.51871,18.30656 c 0.28529,10.06861 0.51849,19.07365 0.51822,20.0112 l -4.9e-4,1.70463 -6.75539,-0.0359 c -3.71547,-0.0197 -17.72187,-0.23499 -31.12533,-0.47835 z"
       id="path104"
       inkscape:connector-curvature="0"
       transform="scale(0.26458333)" />
    <path
       style="fill:#d45500;fill-opacity:0;stroke-width:0.25253814"
       d="m 217.60933,374.27646 c -0.01,-16.25083 -0.0926,-35.59872 -0.18468,-42.99531 l -0.16733,-13.44836 44.92997,0.0638 44.92998,0.0638 0.0618,22.60216 0.0618,22.60216 -2.17097,-4.04061 c -9.11168,-16.9586 -17.0581,-28.05197 -24.38122,-34.03669 -3.38911,-2.7697 -8.62171,-5.0123 -11.69381,-5.01174 -8.39102,0.002 -17.17132,8.80168 -26.67302,26.73332 -0.75326,1.42155 -1.49403,2.58638 -1.64617,2.58852 -0.2572,0.004 -2.79505,4.33002 -5.48337,9.34779 -4.63675,8.65453 -10.43946,23.14652 -15.06664,37.62818 -1.13169,3.54185 -2.15692,6.667 -2.27829,6.9448 -0.12763,0.29209 -0.228,-11.95429 -0.23803,-29.04189 z"
       id="path106"
       inkscape:connector-curvature="0"
       transform="scale(0.26458333)" />
    <path
       style="fill:#d45500;fill-opacity:0;stroke-width:0.25253814"
       d="m 217.60933,374.27646 c -0.01,-16.25083 -0.0926,-35.59872 -0.18468,-42.99531 l -0.16733,-13.44836 44.92997,0.0638 44.92998,0.0638 0.0618,22.60216 0.0618,22.60216 -2.17097,-4.04061 c -9.11168,-16.9586 -17.0581,-28.05197 -24.38122,-34.03669 -3.38911,-2.7697 -8.62171,-5.0123 -11.69381,-5.01174 -8.39102,0.002 -17.17132,8.80168 -26.67302,26.73332 -0.75326,1.42155 -1.49403,2.58638 -1.64617,2.58852 -0.2572,0.004 -2.79505,4.33002 -5.48337,9.34779 -4.63675,8.65453 -10.43946,23.14652 -15.06664,37.62818 -1.13169,3.54185 -2.15692,6.667 -2.27829,6.9448 -0.12763,0.29209 -0.228,-11.95429 -0.23803,-29.04189 z"
       id="path108"
       inkscape:connector-curvature="0"
       transform="scale(0.26458333)" />
    <path
       style="fill:#d45500;fill-opacity:0;stroke-width:0.25253814"
       d="m 269.61535,403.94055 c -13.40346,-0.24336 -30.18565,-0.52853 -37.29375,-0.63371 l -12.92382,-0.19124 0.46151,-1.16132 c 4.09769,-10.31111 19.30742,-46.05562 21.34102,-50.15371 9.37091,-18.88416 17.62276,-28.57614 25.80511,-30.30866 2.00966,-0.42553 3.69463,-0.21642 6.38071,0.79186 9.11778,3.42257 19.30939,16.07518 31.40577,38.98943 l 1.66773,3.15918 0.51871,18.30656 c 0.28529,10.06861 0.51849,19.07365 0.51822,20.0112 l -4.9e-4,1.70463 -6.75539,-0.0359 c -3.71547,-0.0197 -17.72187,-0.23499 -31.12533,-0.47835 z"
       id="path110"
       inkscape:connector-curvature="0"
       transform="scale(0.26458333)" />
    <use
       id="use112"
       inkscape:spray-origin="#path110"
       xlink:href="#path110"
       x="0"
       y="0"
       width="100%"
       height="100%"
       transform="translate(-0.77417628,3.6043244)" />
    <path
       style="fill:#d45500;fill-opacity:0;stroke-width:0.25253814"
       d="m 217.60933,374.27646 c -0.01,-16.25083 -0.0926,-35.59872 -0.18468,-42.99531 l -0.16733,-13.44836 44.92997,0.0638 44.92998,0.0638 0.0618,22.60216 0.0618,22.60216 -2.17097,-4.04061 c -9.11168,-16.9586 -17.0581,-28.05197 -24.38122,-34.03669 -3.38911,-2.7697 -8.62171,-5.0123 -11.69381,-5.01174 -8.39102,0.002 -17.17132,8.80168 -26.67302,26.73332 -0.75326,1.42155 -1.49403,2.58638 -1.64617,2.58852 -0.2572,0.004 -2.79505,4.33002 -5.48337,9.34779 -4.63675,8.65453 -10.43946,23.14652 -15.06664,37.62818 -1.13169,3.54185 -2.15692,6.667 -2.27829,6.9448 -0.12763,0.29209 -0.228,-11.95429 -0.23803,-29.04189 z"
       id="path238"
       inkscape:connector-curvature="0"
       transform="scale(0.26458333)" />
    <path
       style="fill:#aa4400;fill-opacity:0;stroke-width:0.25253814"
       d="m 269.61535,403.94055 c -13.40346,-0.24336 -30.18565,-0.52853 -37.29375,-0.63371 l -12.92382,-0.19124 0.46151,-1.16132 c 4.09769,-10.31111 19.30742,-46.05562 21.34102,-50.15371 9.37091,-18.88416 17.62276,-28.57614 25.80511,-30.30866 2.00966,-0.42553 3.69463,-0.21642 6.38071,0.79186 9.11778,3.42257 19.30939,16.07518 31.40577,38.98943 l 1.66773,3.15918 0.51871,18.30656 c 0.28529,10.06861 0.51849,19.07365 0.51822,20.0112 l -4.9e-4,1.70463 -6.75539,-0.0359 c -3.71547,-0.0197 -17.72187,-0.23499 -31.12533,-0.47835 z"
       id="path260"
       inkscape:connector-curvature="0"
       transform="scale(0.26458333)" />
    <path
       style="fill:#aa4400;fill-opacity:0;stroke-width:0.25253814"
       d="m 269.61535,403.94055 c -13.40346,-0.24336 -30.18565,-0.52853 -37.29375,-0.63371 l -12.92382,-0.19124 0.46151,-1.16132 c 4.09769,-10.31111 19.30742,-46.05562 21.34102,-50.15371 9.37091,-18.88416 17.62276,-28.57614 25.80511,-30.30866 2.00966,-0.42553 3.69463,-0.21642 6.38071,0.79186 9.11778,3.42257 19.30939,16.07518 31.40577,38.98943 l 1.66773,3.15918 0.51871,18.30656 c 0.28529,10.06861 0.51849,19.07365 0.51822,20.0112 l -4.9e-4,1.70463 -6.75539,-0.0359 c -3.71547,-0.0197 -17.72187,-0.23499 -31.12533,-0.47835 z"
       id="path262"
       inkscape:connector-curvature="0"
       transform="scale(0.26458333)" />
    <path
       style="fill:#aa4400;fill-opacity:0;stroke-width:0.25253814"
       d="m 269.61535,403.94055 c -13.40346,-0.24336 -30.18565,-0.52853 -37.29375,-0.63371 l -12.92382,-0.19124 0.46151,-1.16132 c 4.09769,-10.31111 19.30742,-46.05562 21.34102,-50.15371 9.37091,-18.88416 17.62276,-28.57614 25.80511,-30.30866 2.00966,-0.42553 3.69463,-0.21642 6.38071,0.79186 9.11778,3.42257 19.30939,16.07518 31.40577,38.98943 l 1.66773,3.15918 0.51871,18.30656 c 0.28529,10.06861 0.51849,19.07365 0.51822,20.0112 l -4.9e-4,1.70463 -6.75539,-0.0359 c -3.71547,-0.0197 -17.72187,-0.23499 -31.12533,-0.47835 z"
       id="path264"
       inkscape:connector-curvature="0"
       transform="scale(0.26458333)" />
    <path
       style="fill:#aa4400;fill-opacity:0;stroke-width:0.25253814"
       d="m 269.61535,403.94055 c -13.40346,-0.24336 -30.18565,-0.52853 -37.29375,-0.63371 l -12.92382,-0.19124 0.46151,-1.16132 c 4.09769,-10.31111 19.30742,-46.05562 21.34102,-50.15371 9.37091,-18.88416 17.62276,-28.57614 25.80511,-30.30866 2.00966,-0.42553 3.69463,-0.21642 6.38071,0.79186 9.11778,3.42257 19.30939,16.07518 31.40577,38.98943 l 1.66773,3.15918 0.51871,18.30656 c 0.28529,10.06861 0.51849,19.07365 0.51822,20.0112 l -4.9e-4,1.70463 -6.75539,-0.0359 c -3.71547,-0.0197 -17.72187,-0.23499 -31.12533,-0.47835 z"
       id="path266"
       inkscape:connector-curvature="0"
       transform="scale(0.26458333)" />
    <path
       style="fill:#aa4400;fill-opacity:0;stroke-width:0.25253814"
       d="m 269.61535,403.94055 c -13.40346,-0.24336 -30.18565,-0.52853 -37.29375,-0.63371 l -12.92382,-0.19124 0.46151,-1.16132 c 4.09769,-10.31111 19.30742,-46.05562 21.34102,-50.15371 9.37091,-18.88416 17.62276,-28.57614 25.80511,-30.30866 2.00966,-0.42553 3.69463,-0.21642 6.38071,0.79186 9.11778,3.42257 19.30939,16.07518 31.40577,38.98943 l 1.66773,3.15918 0.51871,18.30656 c 0.28529,10.06861 0.51849,19.07365 0.51822,20.0112 l -4.9e-4,1.70463 -6.75539,-0.0359 c -3.71547,-0.0197 -17.72187,-0.23499 -31.12533,-0.47835 z"
       id="path268"
       inkscape:connector-curvature="0"
       transform="scale(0.26458333)" />
    <path
       style="fill:#aa4400;fill-opacity:0;stroke-width:0.25253814"
       d="m 206.22828,387.4503 c 0,-9.21355 0.0756,-30.74874 0.16802,-47.85597 l 0.16802,-31.10405 h 50.21334 50.21334 v 4.16688 4.16687 h -45.4108 -45.41078 l 0.0808,28.97876 c 0.0444,15.93831 0.11612,35.5984 0.15927,43.68909 l 0.0785,14.71035 h -5.12984 -5.12984 z"
       id="path270"
       inkscape:connector-curvature="0"
       transform="scale(0.26458333)" />
    <path
       style="fill:#aa4400;fill-opacity:0;stroke-width:0.25253814"
       d="m 206.22828,387.4503 c 0,-9.21355 0.0756,-30.74874 0.16802,-47.85597 l 0.16802,-31.10405 h 50.21334 50.21334 v 4.16688 4.16687 h -45.4108 -45.41078 l 0.0808,28.97876 c 0.0444,15.93831 0.11612,35.5984 0.15927,43.68909 l 0.0785,14.71035 h -5.12984 -5.12984 z"
       id="path272"
       inkscape:connector-curvature="0"
       transform="scale(0.26458333)" />
    <path
       style="fill:#aa4400;fill-opacity:0;stroke-width:0.25253814"
       d="m 206.22828,387.4503 c 0,-9.21355 0.0756,-30.74874 0.16802,-47.85597 l 0.16802,-31.10405 h 50.21334 50.21334 v 4.16688 4.16687 h -45.4108 -45.41078 l 0.0808,28.97876 c 0.0444,15.93831 0.11612,35.5984 0.15927,43.68909 l 0.0785,14.71035 h -5.12984 -5.12984 z"
       id="path274"
       inkscape:connector-curvature="0"
       transform="scale(0.26458333)" />
    <path
       style="fill:#aa4400;fill-opacity:0;stroke-width:0.25253814"
       d="m 206.22828,387.4503 c 0,-9.21355 0.0756,-30.74874 0.16802,-47.85597 l 0.16802,-31.10405 h 50.21334 50.21334 v 4.16688 4.16687 h -45.4108 -45.41078 l 0.0808,28.97876 c 0.0444,15.93831 0.11612,35.5984 0.15927,43.68909 l 0.0785,14.71035 h -5.12984 -5.12984 z"
       id="path276"
       inkscape:connector-curvature="0"
       transform="scale(0.26458333)" />
    <path
       style="fill:#aa4400;fill-opacity:0;stroke-width:0.25253814"
       d="m 206.22828,387.4503 c 0,-9.21355 0.0756,-30.74874 0.16802,-47.85597 l 0.16802,-31.10405 h 50.21334 50.21334 v 4.16688 4.16687 h -45.4108 -45.41078 l 0.0808,28.97876 c 0.0444,15.93831 0.11612,35.5984 0.15927,43.68909 l 0.0785,14.71035 h -5.12984 -5.12984 z"
       id="path278"
       inkscape:connector-curvature="0"
       transform="scale(0.26458333)" />
    <path
       style="fill:#aa4400;fill-opacity:0;stroke-width:0.25253814"
       d="m 217.60933,374.27646 c -0.01,-16.25083 -0.0926,-35.59872 -0.18468,-42.99531 l -0.16733,-13.44836 44.92997,0.0638 44.92998,0.0638 0.0618,22.60216 0.0618,22.60216 -2.17097,-4.04061 c -9.11168,-16.9586 -17.0581,-28.05197 -24.38122,-34.03669 -3.38911,-2.7697 -8.62171,-5.0123 -11.69381,-5.01174 -8.39102,0.002 -17.17132,8.80168 -26.67302,26.73332 -0.75326,1.42155 -1.49403,2.58638 -1.64617,2.58852 -0.2572,0.004 -2.79505,4.33002 -5.48337,9.34779 -4.63675,8.65453 -10.43946,23.14652 -15.06664,37.62818 -1.13169,3.54185 -2.15692,6.667 -2.27829,6.9448 -0.12763,0.29209 -0.228,-11.95429 -0.23803,-29.04189 z"
       id="path280"
       inkscape:connector-curvature="0"
       transform="scale(0.26458333)" />
    <path
       style="fill:#aa4400;fill-opacity:0;stroke-width:0.25253814"
       d="m 217.60933,374.27646 c -0.01,-16.25083 -0.0926,-35.59872 -0.18468,-42.99531 l -0.16733,-13.44836 44.92997,0.0638 44.92998,0.0638 0.0618,22.60216 0.0618,22.60216 -2.17097,-4.04061 c -9.11168,-16.9586 -17.0581,-28.05197 -24.38122,-34.03669 -3.38911,-2.7697 -8.62171,-5.0123 -11.69381,-5.01174 -8.39102,0.002 -17.17132,8.80168 -26.67302,26.73332 -0.75326,1.42155 -1.49403,2.58638 -1.64617,2.58852 -0.2572,0.004 -2.79505,4.33002 -5.48337,9.34779 -4.63675,8.65453 -10.43946,23.14652 -15.06664,37.62818 -1.13169,3.54185 -2.15692,6.667 -2.27829,6.9448 -0.12763,0.29209 -0.228,-11.95429 -0.23803,-29.04189 z"
       id="path282"
       inkscape:connector-curvature="0"
       transform="scale(0.26458333)" />
    <path
       style="fill:#aa4400;fill-opacity:0;stroke-width:0.25253814"
       d="m 217.60933,374.27646 c -0.01,-16.25083 -0.0926,-35.59872 -0.18468,-42.99531 l -0.16733,-13.44836 44.92997,0.0638 44.92998,0.0638 0.0618,22.60216 0.0618,22.60216 -2.17097,-4.04061 c -9.11168,-16.9586 -17.0581,-28.05197 -24.38122,-34.03669 -3.38911,-2.7697 -8.62171,-5.0123 -11.69381,-5.01174 -8.39102,0.002 -17.17132,8.80168 -26.67302,26.73332 -0.75326,1.42155 -1.49403,2.58638 -1.64617,2.58852 -0.2572,0.004 -2.79505,4.33002 -5.48337,9.34779 -4.63675,8.65453 -10.43946,23.14652 -15.06664,37.62818 -1.13169,3.54185 -2.15692,6.667 -2.27829,6.9448 -0.12763,0.29209 -0.228,-11.95429 -0.23803,-29.04189 z"
       id="path284"
       inkscape:connector-curvature="0"
       transform="scale(0.26458333)" />
    <path
       style="fill:#aa4400;fill-opacity:0;stroke-width:0.25253814"
       d="m 269.61535,403.94055 c -13.40346,-0.24336 -30.18565,-0.52853 -37.29375,-0.63371 l -12.92382,-0.19124 0.46151,-1.16132 c 4.09769,-10.31111 19.30742,-46.05562 21.34102,-50.15371 9.37091,-18.88416 17.62276,-28.57614 25.80511,-30.30866 2.00966,-0.42553 3.69463,-0.21642 6.38071,0.79186 9.11778,3.42257 19.30939,16.07518 31.40577,38.98943 l 1.66773,3.15918 0.51871,18.30656 c 0.28529,10.06861 0.51849,19.07365 0.51822,20.0112 l -4.9e-4,1.70463 -6.75539,-0.0359 c -3.71547,-0.0197 -17.72187,-0.23499 -31.12533,-0.47835 z"
       id="path286"
       inkscape:connector-curvature="0"
       transform="scale(0.26458333)" />
    <path
       style="fill:#aa4400;fill-opacity:0;stroke-width:0.25253814"
       d="m 269.61535,403.94055 c -13.40346,-0.24336 -30.18565,-0.52853 -37.29375,-0.63371 l -12.92382,-0.19124 0.46151,-1.16132 c 4.09769,-10.31111 19.30742,-46.05562 21.34102,-50.15371 9.37091,-18.88416 17.62276,-28.57614 25.80511,-30.30866 2.00966,-0.42553 3.69463,-0.21642 6.38071,0.79186 9.11778,3.42257 19.30939,16.07518 31.40577,38.98943 l 1.66773,3.15918 0.51871,18.30656 c 0.28529,10.06861 0.51849,19.07365 0.51822,20.0112 l -4.9e-4,1.70463 -6.75539,-0.0359 c -3.71547,-0.0197 -17.72187,-0.23499 -31.12533,-0.47835 z"
       id="path288"
       inkscape:connector-curvature="0"
       transform="scale(0.26458333)" />
    <path
       style="fill:#aa4400;fill-opacity:0;stroke-width:0.25253814"
       d="m 269.61535,403.94055 c -13.40346,-0.24336 -30.18565,-0.52853 -37.29375,-0.63371 l -12.92382,-0.19124 0.46151,-1.16132 c 4.09769,-10.31111 19.30742,-46.05562 21.34102,-50.15371 9.37091,-18.88416 17.62276,-28.57614 25.80511,-30.30866 2.00966,-0.42553 3.69463,-0.21642 6.38071,0.79186 9.11778,3.42257 19.30939,16.07518 31.40577,38.98943 l 1.66773,3.15918 0.51871,18.30656 c 0.28529,10.06861 0.51849,19.07365 0.51822,20.0112 l -4.9e-4,1.70463 -6.75539,-0.0359 c -3.71547,-0.0197 -17.72187,-0.23499 -31.12533,-0.47835 z"
       id="path290"
       inkscape:connector-curvature="0"
       transform="scale(0.26458333)" />
    <path
       style="fill:#aa4400;fill-opacity:0;stroke-width:0.25253814"
       d="m 269.61535,403.94055 c -13.40346,-0.24336 -30.18565,-0.52853 -37.29375,-0.63371 l -12.92382,-0.19124 0.46151,-1.16132 c 4.09769,-10.31111 19.30742,-46.05562 21.34102,-50.15371 9.37091,-18.88416 17.62276,-28.57614 25.80511,-30.30866 2.00966,-0.42553 3.69463,-0.21642 6.38071,0.79186 9.11778,3.42257 19.30939,16.07518 31.40577,38.98943 l 1.66773,3.15918 0.51871,18.30656 c 0.28529,10.06861 0.51849,19.07365 0.51822,20.0112 l -4.9e-4,1.70463 -6.75539,-0.0359 c -3.71547,-0.0197 -17.72187,-0.23499 -31.12533,-0.47835 z"
       id="path292"
       inkscape:connector-curvature="0"
       transform="scale(0.26458333)" />
    <path
       style="fill:#aa4400;fill-opacity:0;stroke-width:0.25253814"
       d="m 269.61535,403.94055 c -13.40346,-0.24336 -30.18565,-0.52853 -37.29375,-0.63371 l -12.92382,-0.19124 0.46151,-1.16132 c 4.09769,-10.31111 19.30742,-46.05562 21.34102,-50.15371 9.37091,-18.88416 17.62276,-28.57614 25.80511,-30.30866 2.00966,-0.42553 3.69463,-0.21642 6.38071,0.79186 9.11778,3.42257 19.30939,16.07518 31.40577,38.98943 l 1.66773,3.15918 0.51871,18.30656 c 0.28529,10.06861 0.51849,19.07365 0.51822,20.0112 l -4.9e-4,1.70463 -6.75539,-0.0359 c -3.71547,-0.0197 -17.72187,-0.23499 -31.12533,-0.47835 z"
       id="path294"
       inkscape:connector-curvature="0"
       transform="scale(0.26458333)" />
    <path
       style="fill:#aa4400;fill-opacity:0;stroke-width:0.25253814"
       d="m 269.61535,403.94055 c -13.40346,-0.24336 -30.18565,-0.52853 -37.29375,-0.63371 l -12.92382,-0.19124 0.46151,-1.16132 c 4.09769,-10.31111 19.30742,-46.05562 21.34102,-50.15371 9.37091,-18.88416 17.62276,-28.57614 25.80511,-30.30866 2.00966,-0.42553 3.69463,-0.21642 6.38071,0.79186 9.11778,3.42257 19.30939,16.07518 31.40577,38.98943 l 1.66773,3.15918 0.51871,18.30656 c 0.28529,10.06861 0.51849,19.07365 0.51822,20.0112 l -4.9e-4,1.70463 -6.75539,-0.0359 c -3.71547,-0.0197 -17.72187,-0.23499 -31.12533,-0.47835 z"
       id="path296"
       inkscape:connector-curvature="0"
       transform="scale(0.26458333)" />
    <path
       style="fill:#aa4400;fill-opacity:0;stroke-width:0.25253814"
       d="m 269.61535,403.94055 c -13.40346,-0.24336 -30.18565,-0.52853 -37.29375,-0.63371 l -12.92382,-0.19124 0.46151,-1.16132 c 4.09769,-10.31111 19.30742,-46.05562 21.34102,-50.15371 9.37091,-18.88416 17.62276,-28.57614 25.80511,-30.30866 2.00966,-0.42553 3.69463,-0.21642 6.38071,0.79186 9.11778,3.42257 19.30939,16.07518 31.40577,38.98943 l 1.66773,3.15918 0.51871,18.30656 c 0.28529,10.06861 0.51849,19.07365 0.51822,20.0112 l -4.9e-4,1.70463 -6.75539,-0.0359 c -3.71547,-0.0197 -17.72187,-0.23499 -31.12533,-0.47835 z"
       id="path298"
       inkscape:connector-curvature="0"
       transform="scale(0.26458333)" />
    <path
       style="fill:#aa4400;fill-opacity:0;stroke-width:0.25253814"
       d="m 269.61535,403.94055 c -13.40346,-0.24336 -30.18565,-0.52853 -37.29375,-0.63371 l -12.92382,-0.19124 0.46151,-1.16132 c 4.09769,-10.31111 19.30742,-46.05562 21.34102,-50.15371 9.37091,-18.88416 17.62276,-28.57614 25.80511,-30.30866 2.00966,-0.42553 3.69463,-0.21642 6.38071,0.79186 9.11778,3.42257 19.30939,16.07518 31.40577,38.98943 l 1.66773,3.15918 0.51871,18.30656 c 0.28529,10.06861 0.51849,19.07365 0.51822,20.0112 l -4.9e-4,1.70463 -6.75539,-0.0359 c -3.71547,-0.0197 -17.72187,-0.23499 -31.12533,-0.47835 z"
       id="path300"
       inkscape:connector-curvature="0"
       transform="scale(0.26458333)" />
    <path
       style="fill:#aa4400;fill-opacity:0;stroke-width:0.25253814"
       d="m 269.61535,403.94055 c -13.40346,-0.24336 -30.18565,-0.52853 -37.29375,-0.63371 l -12.92382,-0.19124 0.46151,-1.16132 c 4.09769,-10.31111 19.30742,-46.05562 21.34102,-50.15371 9.37091,-18.88416 17.62276,-28.57614 25.80511,-30.30866 2.00966,-0.42553 3.69463,-0.21642 6.38071,0.79186 9.11778,3.42257 19.30939,16.07518 31.40577,38.98943 l 1.66773,3.15918 0.51871,18.30656 c 0.28529,10.06861 0.51849,19.07365 0.51822,20.0112 l -4.9e-4,1.70463 -6.75539,-0.0359 c -3.71547,-0.0197 -17.72187,-0.23499 -31.12533,-0.47835 z"
       id="path302"
       inkscape:connector-curvature="0"
       transform="scale(0.26458333)" />
    <path
       style="fill:#aa4400;fill-opacity:0;stroke-width:0.25253814"
       d="m 269.61535,403.94055 c -13.40346,-0.24336 -30.18565,-0.52853 -37.29375,-0.63371 l -12.92382,-0.19124 0.46151,-1.16132 c 4.09769,-10.31111 19.30742,-46.05562 21.34102,-50.15371 9.37091,-18.88416 17.62276,-28.57614 25.80511,-30.30866 2.00966,-0.42553 3.69463,-0.21642 6.38071,0.79186 9.11778,3.42257 19.30939,16.07518 31.40577,38.98943 l 1.66773,3.15918 0.51871,18.30656 c 0.28529,10.06861 0.51849,19.07365 0.51822,20.0112 l -4.9e-4,1.70463 -6.75539,-0.0359 c -3.71547,-0.0197 -17.72187,-0.23499 -31.12533,-0.47835 z"
       id="path304"
       inkscape:connector-curvature="0"
       transform="scale(0.26458333)" />
    <path
       style="fill:#aa4400;fill-opacity:0;stroke-width:0.25253814"
       d="m 269.61535,403.94055 c -13.40346,-0.24336 -30.18565,-0.52853 -37.29375,-0.63371 l -12.92382,-0.19124 0.46151,-1.16132 c 4.09769,-10.31111 19.30742,-46.05562 21.34102,-50.15371 9.37091,-18.88416 17.62276,-28.57614 25.80511,-30.30866 2.00966,-0.42553 3.69463,-0.21642 6.38071,0.79186 9.11778,3.42257 19.30939,16.07518 31.40577,38.98943 l 1.66773,3.15918 0.51871,18.30656 c 0.28529,10.06861 0.51849,19.07365 0.51822,20.0112 l -4.9e-4,1.70463 -6.75539,-0.0359 c -3.71547,-0.0197 -17.72187,-0.23499 -31.12533,-0.47835 z"
       id="path306"
       inkscape:connector-curvature="0"
       transform="scale(0.26458333)" />
    <path
       style="fill:#aa4400;fill-opacity:0;stroke-width:0.25253814"
       d="m 269.61535,403.94055 c -13.40346,-0.24336 -30.18565,-0.52853 -37.29375,-0.63371 l -12.92382,-0.19124 0.46151,-1.16132 c 4.09769,-10.31111 19.30742,-46.05562 21.34102,-50.15371 9.37091,-18.88416 17.62276,-28.57614 25.80511,-30.30866 2.00966,-0.42553 3.69463,-0.21642 6.38071,0.79186 9.11778,3.42257 19.30939,16.07518 31.40577,38.98943 l 1.66773,3.15918 0.51871,18.30656 c 0.28529,10.06861 0.51849,19.07365 0.51822,20.0112 l -4.9e-4,1.70463 -6.75539,-0.0359 c -3.71547,-0.0197 -17.72187,-0.23499 -31.12533,-0.47835 z"
       id="path308"
       inkscape:connector-curvature="0"
       transform="scale(0.26458333)" />
    <path
       style="fill:#aa4400;fill-opacity:0;stroke-width:0.25253814"
       d="m 269.61535,403.94055 c -13.40346,-0.24336 -30.18565,-0.52853 -37.29375,-0.63371 l -12.92382,-0.19124 0.46151,-1.16132 c 4.09769,-10.31111 19.30742,-46.05562 21.34102,-50.15371 9.37091,-18.88416 17.62276,-28.57614 25.80511,-30.30866 2.00966,-0.42553 3.69463,-0.21642 6.38071,0.79186 9.11778,3.42257 19.30939,16.07518 31.40577,38.98943 l 1.66773,3.15918 0.51871,18.30656 c 0.28529,10.06861 0.51849,19.07365 0.51822,20.0112 l -4.9e-4,1.70463 -6.75539,-0.0359 c -3.71547,-0.0197 -17.72187,-0.23499 -31.12533,-0.47835 z"
       id="path310"
       inkscape:connector-curvature="0"
       transform="scale(0.26458333)" />
    <path
       style="fill:#aa4400;fill-opacity:0;stroke-width:0.25253814"
       d="m 216.77581,412.22032 -0.0672,-6.88167 -5.74524,-0.0679 -5.74524,-0.0679 1e-4,-15.33695 c 6e-5,-8.43532 0.0757,-30.42295 0.16805,-48.86139 l 0.16793,-33.52444 h 51.2179 51.21789 l 0.0687,4.73509 0.0687,4.73509 6.37659,0.0675 6.37658,0.0675 v 50.84692 50.84692 l -1.32582,0.15925 c -0.72921,0.0876 -24.13766,0.16024 -52.0188,0.16145 l -50.69297,0.002 z m 99.51895,5.95835 3.82822,-0.1657 v -50.08939 -50.08939 h -6.08246 -6.08246 l 0.14203,1.8309 c 0.0781,1.00699 0.21564,20.46822 0.30561,43.24715 0.09,22.77894 0.17779,41.68536 0.19518,42.01427 l 0.0316,0.59801 -27.65292,-0.0293 c -15.20911,-0.0161 -35.69311,-0.10382 -45.52,-0.19494 l -17.86707,-0.16567 v 6.60486 6.60487 h 47.43701 c 26.09036,0 49.15972,-0.0746 51.26525,-0.1657 z m -8.54398,-14.67092 c 10e-4,-0.65976 -0.23382,-9.72272 -0.52226,-20.13992 l -0.52443,-18.94036 -1.91725,-3.6618 c -7.76043,-14.82182 -15.38817,-26.03465 -22.07552,-32.45115 -4.17073,-4.00181 -8.08482,-6.29201 -12.0421,-7.04603 -7.91672,-1.50847 -16.91798,6.67537 -26.35989,23.96609 -4.31778,7.90703 -4.61332,8.5714 -16.85076,37.88072 l -8.32988,19.95051 1.44161,0.17446 c 0.79289,0.096 13.5445,0.3639 28.33693,0.59541 14.79242,0.23152 31.10007,0.50362 36.23922,0.60467 5.13915,0.10105 12.32702,0.20245 15.97303,0.22534 l 6.62913,0.0416 0.002,-1.19956 z m -91.2154,-42.74208 -0.11436,-43.6891 h 45.41126 45.41125 v -4.41941 -4.41942 H 256.7777 206.31186 l -0.16796,35.41847 c -0.0924,19.48016 -0.168,41.12899 -0.16806,48.10852 l -1e-4,12.69004 h 5.337 5.337 z m 10.14849,43.42548 c -4.65302,-0.0905 -8.48844,-0.1819 -8.52316,-0.20303 -0.2135,-0.12995 0.22748,-1.60754 2.80897,-9.41192 3.22501,-9.74986 5.47764,-15.85403 8.36349,-22.66335 3.42169,-8.07368 9.97114,-20.81065 11.37609,-22.12354 0.3026,-0.28277 1.38144,-2.04829 2.39742,-3.92339 9.20943,-16.99684 17.72135,-25.49204 25.60888,-25.55858 2.04471,-0.0172 5.61655,1.05031 7.91615,2.36602 8.7046,4.98026 17.76651,16.93811 29.4413,38.84993 l 1.41282,2.65165 0.004,-20.32932 c 0.002,-11.18113 -0.0697,-21.6078 -0.15973,-23.17038 l -0.1637,-2.84105 h -44.98 -44.97996 l 0.0681,40.2167 c 0.0374,22.11918 0.13574,41.60881 0.21846,43.31029 l 0.15039,3.09359 8.75028,-0.0495 8.75027,-0.0495 z m -0.0531,-21.83347 c 3.1602,-7.76006 6.64868,-15.96866 9.38001,-22.07169 0.70861,-1.58334 1.23705,-2.93011 1.17433,-2.99283 -0.18366,-0.18367 -4.74122,9.26415 -6.82368,14.14545 -2.64389,6.19733 -7.21311,18.27771 -7.21311,19.07045 0,0.35459 0.39547,-0.57109 3.48245,-8.15138 z"
       id="path312"
       inkscape:connector-curvature="0"
       transform="scale(0.26458333)" />
    <path
       style="fill:#aa4400;fill-opacity:0;stroke-width:0.25253814"
       d="m 217.60933,374.27646 c -0.01,-16.25083 -0.0926,-35.59872 -0.18468,-42.99531 l -0.16733,-13.44836 44.92997,0.0638 44.92998,0.0638 0.0618,22.60216 0.0618,22.60216 -2.17097,-4.04061 c -9.11168,-16.9586 -17.0581,-28.05197 -24.38122,-34.03669 -3.38911,-2.7697 -8.62171,-5.0123 -11.69381,-5.01174 -8.39102,0.002 -17.17132,8.80168 -26.67302,26.73332 -0.75326,1.42155 -1.49403,2.58638 -1.64617,2.58852 -0.2572,0.004 -2.79505,4.33002 -5.48337,9.34779 -4.63675,8.65453 -10.43946,23.14652 -15.06664,37.62818 -1.13169,3.54185 -2.15692,6.667 -2.27829,6.9448 -0.12763,0.29209 -0.228,-11.95429 -0.23803,-29.04189 z"
       id="path314"
       inkscape:connector-curvature="0"
       transform="scale(0.26458333)" />
    <path
       style="fill:#aa4400;fill-opacity:0;stroke-width:0.25253814"
       d="m 217.60933,374.27646 c -0.01,-16.25083 -0.0926,-35.59872 -0.18468,-42.99531 l -0.16733,-13.44836 44.92997,0.0638 44.92998,0.0638 0.0618,22.60216 0.0618,22.60216 -2.17097,-4.04061 c -9.11168,-16.9586 -17.0581,-28.05197 -24.38122,-34.03669 -3.38911,-2.7697 -8.62171,-5.0123 -11.69381,-5.01174 -8.39102,0.002 -17.17132,8.80168 -26.67302,26.73332 -0.75326,1.42155 -1.49403,2.58638 -1.64617,2.58852 -0.2572,0.004 -2.79505,4.33002 -5.48337,9.34779 -4.63675,8.65453 -10.43946,23.14652 -15.06664,37.62818 -1.13169,3.54185 -2.15692,6.667 -2.27829,6.9448 -0.12763,0.29209 -0.228,-11.95429 -0.23803,-29.04189 z"
       id="path316"
       inkscape:connector-curvature="0"
       transform="scale(0.26458333)" />
    <path
       style="fill:#aa4400;fill-opacity:0;stroke-width:0.25253814"
       d="m 217.60933,374.27646 c -0.01,-16.25083 -0.0926,-35.59872 -0.18468,-42.99531 l -0.16733,-13.44836 44.92997,0.0638 44.92998,0.0638 0.0618,22.60216 0.0618,22.60216 -2.17097,-4.04061 c -9.11168,-16.9586 -17.0581,-28.05197 -24.38122,-34.03669 -3.38911,-2.7697 -8.62171,-5.0123 -11.69381,-5.01174 -8.39102,0.002 -17.17132,8.80168 -26.67302,26.73332 -0.75326,1.42155 -1.49403,2.58638 -1.64617,2.58852 -0.2572,0.004 -2.79505,4.33002 -5.48337,9.34779 -4.63675,8.65453 -10.43946,23.14652 -15.06664,37.62818 -1.13169,3.54185 -2.15692,6.667 -2.27829,6.9448 -0.12763,0.29209 -0.228,-11.95429 -0.23803,-29.04189 z"
       id="path318"
       inkscape:connector-curvature="0"
       transform="scale(0.26458333)" />
    <path
       style="fill:#aa4400;fill-opacity:0;stroke-width:0.25253814"
       d="m 217.60933,374.27646 c -0.01,-16.25083 -0.0926,-35.59872 -0.18468,-42.99531 l -0.16733,-13.44836 44.92997,0.0638 44.92998,0.0638 0.0618,22.60216 0.0618,22.60216 -2.17097,-4.04061 c -9.11168,-16.9586 -17.0581,-28.05197 -24.38122,-34.03669 -3.38911,-2.7697 -8.62171,-5.0123 -11.69381,-5.01174 -8.39102,0.002 -17.17132,8.80168 -26.67302,26.73332 -0.75326,1.42155 -1.49403,2.58638 -1.64617,2.58852 -0.2572,0.004 -2.79505,4.33002 -5.48337,9.34779 -4.63675,8.65453 -10.43946,23.14652 -15.06664,37.62818 -1.13169,3.54185 -2.15692,6.667 -2.27829,6.9448 -0.12763,0.29209 -0.228,-11.95429 -0.23803,-29.04189 z"
       id="path320"
       inkscape:connector-curvature="0"
       transform="scale(0.26458333)" />
    <path
       style="fill:#aa4400;fill-opacity:0;stroke-width:0.25253814"
       d="m 217.60933,374.27646 c -0.01,-16.25083 -0.0926,-35.59872 -0.18468,-42.99531 l -0.16733,-13.44836 44.92997,0.0638 44.92998,0.0638 0.0618,22.60216 0.0618,22.60216 -2.17097,-4.04061 c -9.11168,-16.9586 -17.0581,-28.05197 -24.38122,-34.03669 -3.38911,-2.7697 -8.62171,-5.0123 -11.69381,-5.01174 -8.39102,0.002 -17.17132,8.80168 -26.67302,26.73332 -0.75326,1.42155 -1.49403,2.58638 -1.64617,2.58852 -0.2572,0.004 -2.79505,4.33002 -5.48337,9.34779 -4.63675,8.65453 -10.43946,23.14652 -15.06664,37.62818 -1.13169,3.54185 -2.15692,6.667 -2.27829,6.9448 -0.12763,0.29209 -0.228,-11.95429 -0.23803,-29.04189 z"
       id="path322"
       inkscape:connector-curvature="0"
       transform="scale(0.26458333)" />
    <path
       style="fill:#aa4400;fill-opacity:0;stroke-width:0.25253814"
       d="m 217.60933,374.27646 c -0.01,-16.25083 -0.0926,-35.59872 -0.18468,-42.99531 l -0.16733,-13.44836 44.92997,0.0638 44.92998,0.0638 0.0618,22.60216 0.0618,22.60216 -2.17097,-4.04061 c -9.11168,-16.9586 -17.0581,-28.05197 -24.38122,-34.03669 -3.38911,-2.7697 -8.62171,-5.0123 -11.69381,-5.01174 -8.39102,0.002 -17.17132,8.80168 -26.67302,26.73332 -0.75326,1.42155 -1.49403,2.58638 -1.64617,2.58852 -0.2572,0.004 -2.79505,4.33002 -5.48337,9.34779 -4.63675,8.65453 -10.43946,23.14652 -15.06664,37.62818 -1.13169,3.54185 -2.15692,6.667 -2.27829,6.9448 -0.12763,0.29209 -0.228,-11.95429 -0.23803,-29.04189 z"
       id="path324"
       inkscape:connector-curvature="0"
       transform="scale(0.26458333)" />
    <path
       style="fill:#501616;fill-opacity:0;stroke-width:0.25253814"
       d="m 217.60933,374.27646 c -0.01,-16.25083 -0.0926,-35.59872 -0.18468,-42.99531 l -0.16733,-13.44836 44.92997,0.0638 44.92998,0.0638 0.0618,22.60216 0.0618,22.60216 -2.17097,-4.04061 c -9.11168,-16.9586 -17.0581,-28.05197 -24.38122,-34.03669 -3.38911,-2.7697 -8.62171,-5.0123 -11.69381,-5.01174 -8.39102,0.002 -17.17132,8.80168 -26.67302,26.73332 -0.75326,1.42155 -1.49403,2.58638 -1.64617,2.58852 -0.2572,0.004 -2.79505,4.33002 -5.48337,9.34779 -4.63675,8.65453 -10.43946,23.14652 -15.06664,37.62818 -1.13169,3.54185 -2.15692,6.667 -2.27829,6.9448 -0.12763,0.29209 -0.228,-11.95429 -0.23803,-29.04189 z"
       id="path326"
       inkscape:connector-curvature="0"
       transform="scale(0.26458333)" />
    <path
       style="fill:#501616;fill-opacity:0;stroke-width:0.25253814"
       d="m 269.61535,403.94055 c -13.40346,-0.24336 -30.18565,-0.52853 -37.29375,-0.63371 l -12.92382,-0.19124 0.46151,-1.16132 c 4.09769,-10.31111 19.30742,-46.05562 21.34102,-50.15371 9.37091,-18.88416 17.62276,-28.57614 25.80511,-30.30866 2.00966,-0.42553 3.69463,-0.21642 6.38071,0.79186 9.11778,3.42257 19.30939,16.07518 31.40577,38.98943 l 1.66773,3.15918 0.51871,18.30656 c 0.28529,10.06861 0.51849,19.07365 0.51822,20.0112 l -4.9e-4,1.70463 -6.75539,-0.0359 c -3.71547,-0.0197 -17.72187,-0.23499 -31.12533,-0.47835 z"
       id="path328"
       inkscape:connector-curvature="0"
       transform="scale(0.26458333)" />
    <path
       style="fill:#501616;fill-opacity:0;stroke-width:0.25253814"
       d="m 269.61535,403.94055 c -13.40346,-0.24336 -30.18565,-0.52853 -37.29375,-0.63371 l -12.92382,-0.19124 0.46151,-1.16132 c 4.09769,-10.31111 19.30742,-46.05562 21.34102,-50.15371 9.37091,-18.88416 17.62276,-28.57614 25.80511,-30.30866 2.00966,-0.42553 3.69463,-0.21642 6.38071,0.79186 9.11778,3.42257 19.30939,16.07518 31.40577,38.98943 l 1.66773,3.15918 0.51871,18.30656 c 0.28529,10.06861 0.51849,19.07365 0.51822,20.0112 l -4.9e-4,1.70463 -6.75539,-0.0359 c -3.71547,-0.0197 -17.72187,-0.23499 -31.12533,-0.47835 z"
       id="path330"
       inkscape:connector-curvature="0"
       transform="scale(0.26458333)" />
    <path
       style="fill:#501616;fill-opacity:0;stroke-width:0.25253814"
       d="m 269.61535,403.94055 c -13.40346,-0.24336 -30.18565,-0.52853 -37.29375,-0.63371 l -12.92382,-0.19124 0.46151,-1.16132 c 4.09769,-10.31111 19.30742,-46.05562 21.34102,-50.15371 9.37091,-18.88416 17.62276,-28.57614 25.80511,-30.30866 2.00966,-0.42553 3.69463,-0.21642 6.38071,0.79186 9.11778,3.42257 19.30939,16.07518 31.40577,38.98943 l 1.66773,3.15918 0.51871,18.30656 c 0.28529,10.06861 0.51849,19.07365 0.51822,20.0112 l -4.9e-4,1.70463 -6.75539,-0.0359 c -3.71547,-0.0197 -17.72187,-0.23499 -31.12533,-0.47835 z"
       id="path332"
       inkscape:connector-curvature="0"
       transform="scale(0.26458333)" />
    <path
       style="fill:#501616;fill-opacity:0;stroke-width:0.25253814"
       d="m 269.61535,403.94055 c -13.40346,-0.24336 -30.18565,-0.52853 -37.29375,-0.63371 l -12.92382,-0.19124 0.46151,-1.16132 c 4.09769,-10.31111 19.30742,-46.05562 21.34102,-50.15371 9.37091,-18.88416 17.62276,-28.57614 25.80511,-30.30866 2.00966,-0.42553 3.69463,-0.21642 6.38071,0.79186 9.11778,3.42257 19.30939,16.07518 31.40577,38.98943 l 1.66773,3.15918 0.51871,18.30656 c 0.28529,10.06861 0.51849,19.07365 0.51822,20.0112 l -4.9e-4,1.70463 -6.75539,-0.0359 c -3.71547,-0.0197 -17.72187,-0.23499 -31.12533,-0.47835 z"
       id="path334"
       inkscape:connector-curvature="0"
       transform="scale(0.26458333)" />
    <path
       style="fill:#501616;fill-opacity:0;stroke-width:0.25253814"
       d="m 217.60933,374.27646 c -0.01,-16.25083 -0.0926,-35.59872 -0.18468,-42.99531 l -0.16733,-13.44836 44.92997,0.0638 44.92998,0.0638 0.0618,22.60216 0.0618,22.60216 -2.17097,-4.04061 c -9.11168,-16.9586 -17.0581,-28.05197 -24.38122,-34.03669 -3.38911,-2.7697 -8.62171,-5.0123 -11.69381,-5.01174 -8.39102,0.002 -17.17132,8.80168 -26.67302,26.73332 -0.75326,1.42155 -1.49403,2.58638 -1.64617,2.58852 -0.2572,0.004 -2.79505,4.33002 -5.48337,9.34779 -4.63675,8.65453 -10.43946,23.14652 -15.06664,37.62818 -1.13169,3.54185 -2.15692,6.667 -2.27829,6.9448 -0.12763,0.29209 -0.228,-11.95429 -0.23803,-29.04189 z"
       id="path336"
       inkscape:connector-curvature="0"
       transform="scale(0.26458333)" />
    <path
       style="fill:#501616;fill-opacity:0;stroke-width:0.25253814"
       d="m 217.60933,374.27646 c -0.01,-16.25083 -0.0926,-35.59872 -0.18468,-42.99531 l -0.16733,-13.44836 44.92997,0.0638 44.92998,0.0638 0.0618,22.60216 0.0618,22.60216 -2.17097,-4.04061 c -9.11168,-16.9586 -17.0581,-28.05197 -24.38122,-34.03669 -3.38911,-2.7697 -8.62171,-5.0123 -11.69381,-5.01174 -8.39102,0.002 -17.17132,8.80168 -26.67302,26.73332 -0.75326,1.42155 -1.49403,2.58638 -1.64617,2.58852 -0.2572,0.004 -2.79505,4.33002 -5.48337,9.34779 -4.63675,8.65453 -10.43946,23.14652 -15.06664,37.62818 -1.13169,3.54185 -2.15692,6.667 -2.27829,6.9448 -0.12763,0.29209 -0.228,-11.95429 -0.23803,-29.04189 z"
       id="path338"
       inkscape:connector-curvature="0"
       transform="scale(0.26458333)" />
    <path
       style="fill:#501616;fill-opacity:0;stroke-width:0.25253814"
       d="m 217.60933,374.27646 c -0.01,-16.25083 -0.0926,-35.59872 -0.18468,-42.99531 l -0.16733,-13.44836 44.92997,0.0638 44.92998,0.0638 0.0618,22.60216 0.0618,22.60216 -2.17097,-4.04061 c -9.11168,-16.9586 -17.0581,-28.05197 -24.38122,-34.03669 -3.38911,-2.7697 -8.62171,-5.0123 -11.69381,-5.01174 -8.39102,0.002 -17.17132,8.80168 -26.67302,26.73332 -0.75326,1.42155 -1.49403,2.58638 -1.64617,2.58852 -0.2572,0.004 -2.79505,4.33002 -5.48337,9.34779 -4.63675,8.65453 -10.43946,23.14652 -15.06664,37.62818 -1.13169,3.54185 -2.15692,6.667 -2.27829,6.9448 -0.12763,0.29209 -0.228,-11.95429 -0.23803,-29.04189 z"
       id="path340"
       inkscape:connector-curvature="0"
       transform="scale(0.26458333)" />
    <path
       style="fill:#501616;fill-opacity:0;stroke-width:0.25253814"
       d="m 217.60933,374.27646 c -0.01,-16.25083 -0.0926,-35.59872 -0.18468,-42.99531 l -0.16733,-13.44836 44.92997,0.0638 44.92998,0.0638 0.0618,22.60216 0.0618,22.60216 -2.17097,-4.04061 c -9.11168,-16.9586 -17.0581,-28.05197 -24.38122,-34.03669 -3.38911,-2.7697 -8.62171,-5.0123 -11.69381,-5.01174 -8.39102,0.002 -17.17132,8.80168 -26.67302,26.73332 -0.75326,1.42155 -1.49403,2.58638 -1.64617,2.58852 -0.2572,0.004 -2.79505,4.33002 -5.48337,9.34779 -4.63675,8.65453 -10.43946,23.14652 -15.06664,37.62818 -1.13169,3.54185 -2.15692,6.667 -2.27829,6.9448 -0.12763,0.29209 -0.228,-11.95429 -0.23803,-29.04189 z"
       id="path342"
       inkscape:connector-curvature="0"
       transform="scale(0.26458333)" />
    <path
       style="fill:#501616;fill-opacity:0;stroke-width:0.25253814"
       d="m 217.60933,374.27646 c -0.01,-16.25083 -0.0926,-35.59872 -0.18468,-42.99531 l -0.16733,-13.44836 44.92997,0.0638 44.92998,0.0638 0.0618,22.60216 0.0618,22.60216 -2.17097,-4.04061 c -9.11168,-16.9586 -17.0581,-28.05197 -24.38122,-34.03669 -3.38911,-2.7697 -8.62171,-5.0123 -11.69381,-5.01174 -8.39102,0.002 -17.17132,8.80168 -26.67302,26.73332 -0.75326,1.42155 -1.49403,2.58638 -1.64617,2.58852 -0.2572,0.004 -2.79505,4.33002 -5.48337,9.34779 -4.63675,8.65453 -10.43946,23.14652 -15.06664,37.62818 -1.13169,3.54185 -2.15692,6.667 -2.27829,6.9448 -0.12763,0.29209 -0.228,-11.95429 -0.23803,-29.04189 z"
       id="path344"
       inkscape:connector-curvature="0"
       transform="scale(0.26458333)" />
    <path
       style="fill:#501616;fill-opacity:0;stroke-width:0.25253814"
       d="m 216.77581,412.22032 -0.0672,-6.88167 -5.74524,-0.0679 -5.74524,-0.0679 v -15.10567 c 0,-8.30812 0.0756,-30.29574 0.16804,-48.86139 l 0.16805,-33.75572 H 256.77211 307.99 l 0.0687,4.73509 0.0687,4.73509 6.37659,0.0675 6.37658,0.0675 v 50.84692 50.84692 l -1.32582,0.15925 c -0.72921,0.0876 -24.13766,0.16024 -52.0188,0.16145 l -50.69297,0.002 z m 99.51895,5.95835 3.82822,-0.1657 v -50.08939 -50.08939 h -6.08359 -6.08358 l 0.14368,2.08344 c 0.079,1.14589 0.21515,20.69023 0.30249,43.43186 0.0873,22.74164 0.17494,41.53287 0.19466,41.7583 0.0329,0.37602 -2.25885,0.40775 -27.74334,0.38411 -15.27856,-0.0142 -35.76256,-0.10047 -45.52,-0.19177 l -17.7408,-0.16599 v 6.60511 6.60512 h 47.43701 c 26.09036,0 49.15972,-0.0746 51.26525,-0.1657 z m -74.90054,-13.63861 c -0.17362,-0.0701 -0.45773,-0.0701 -0.63135,0 -0.17362,0.0701 -0.0316,0.12737 0.31567,0.12737 0.34724,0 0.4893,-0.0573 0.31568,-0.12737 z m -24.85811,-43.77439 -0.11299,-43.6891 h 45.41021 45.4102 v -4.41941 -4.41942 H 256.7777 206.31186 l -0.16806,35.27096 c -0.0924,19.39902 -0.16806,41.04785 -0.16806,48.10851 v 12.83756 h 5.33668 5.33668 z m 10.16866,43.45019 c -6.44846,-0.1069 -8.46403,-0.21473 -8.54473,-0.45714 -0.13434,-0.40358 -0.56754,-0.15005 -0.56754,0.33215 0,0.31081 1.28027,0.35668 8.7757,0.31439 l 8.7757,-0.0495 z m -9.17544,-50.45812 c -0.0368,-8.85462 -0.0669,-1.60993 -0.0669,16.0993 0,17.70924 0.0301,24.95393 0.0669,16.09931 0.0368,-8.85462 0.0368,-23.34399 0,-32.19861 z m 2.25598,44.08369 c -0.0806,-0.20146 -0.14045,-0.14162 -0.15257,0.15257 -0.011,0.26622 0.0487,0.41537 0.13264,0.33146 0.0839,-0.0839 0.0929,-0.30173 0.0199,-0.48403 z m 6.59213,-14.8524 c 3.40975,-8.37382 6.47726,-15.62017 9.12975,-21.56706 0.98511,-2.20861 1.74963,-4.05712 1.69895,-4.10781 -0.15207,-0.15207 -3.02125,5.55793 -5.09708,10.14377 -2.33959,5.16853 -5.37749,12.71975 -7.26424,18.05648 -2.63958,7.46617 -2.32433,6.94672 1.53262,-2.52538 z m -2.7279,3.71003 c 0.002,-0.11237 -0.10977,-0.13407 -0.24867,-0.0482 -0.13889,0.0858 -0.25079,0.34824 -0.24867,0.58312 0.003,0.36801 0.0377,0.37468 0.24867,0.0482 0.13465,-0.20835 0.24655,-0.47075 0.24867,-0.58312 z m 2.02031,-5.55584 c 0.002,-0.11237 -0.10978,-0.13407 -0.24867,-0.0482 -0.1389,0.0858 -0.2508,0.34825 -0.24867,0.58312 0.003,0.36801 0.0377,0.37468 0.24867,0.0482 0.13464,-0.20835 0.24654,-0.47075 0.24867,-0.58312 z m 0.75761,-2.0203 c 0.002,-0.11237 -0.10977,-0.13408 -0.24867,-0.0482 -0.13889,0.0858 -0.2508,0.34824 -0.24867,0.58311 0.003,0.36802 0.0377,0.37468 0.24867,0.0482 0.13465,-0.20834 0.24655,-0.47075 0.24867,-0.58311 z m 0.50508,-1.2627 c 0.002,-0.11236 -0.10977,-0.13407 -0.24867,-0.0482 -0.1389,0.0858 -0.2508,0.34825 -0.24867,0.58312 0.003,0.36802 0.0377,0.37468 0.24867,0.0482 0.13464,-0.20834 0.24654,-0.47075 0.24867,-0.58312 z m 1.51523,-3.78807 c 0.002,-0.11237 -0.10978,-0.13407 -0.24867,-0.0482 -0.1389,0.0859 -0.2508,0.34825 -0.24867,0.58312 0.003,0.36801 0.0377,0.37468 0.24867,0.0482 0.13464,-0.20835 0.24654,-0.47075 0.24867,-0.58312 z m 1.26269,-3.03045 c 0.002,-0.11237 -0.10978,-0.13408 -0.24867,-0.0482 -0.1389,0.0858 -0.2508,0.34824 -0.24867,0.58311 0.003,0.36802 0.0377,0.37468 0.24867,0.0482 0.13464,-0.20834 0.24654,-0.47075 0.24867,-0.58311 z m 0.75761,-1.76777 c 0.002,-0.11237 -0.10977,-0.13407 -0.24867,-0.0482 -0.13889,0.0858 -0.2508,0.34824 -0.24867,0.58311 0.003,0.36802 0.0377,0.37469 0.24867,0.0482 0.13465,-0.20834 0.24655,-0.47074 0.24867,-0.58311 z m 1.2627,-2.77792 c 0.002,-0.11237 -0.10978,-0.13407 -0.24868,-0.0482 -0.13889,0.0858 -0.25079,0.34824 -0.24867,0.58311 0.003,0.36802 0.0377,0.37469 0.24867,0.0482 0.13465,-0.20834 0.24655,-0.47074 0.24868,-0.58311 z m 75.70366,-23.72368 -0.0617,-21.27634 -0.0661,20.78526 c -0.0439,13.80029 -0.15111,20.73271 -0.31908,20.6289 -0.14435,-0.0892 -0.12631,0.12166 0.042,0.49108 0.16224,0.35609 0.33357,0.64744 0.38072,0.64744 0.0471,0 0.058,-9.57436 0.0241,-21.27634 z m -73.07478,18.30901 c 0.64247,-1.28478 1.07867,-2.33597 0.96933,-2.33597 -0.22608,0 -2.33166,4.14628 -2.33166,4.59148 0,0.43621 0.0949,0.27912 1.36233,-2.25551 z m 71.59011,-0.4093 c -0.16639,-0.36519 -0.40084,-0.66398 -0.52101,-0.66398 -0.12017,0 -0.0367,0.35148 0.18542,0.78108 0.48258,0.9332 0.76866,0.83337 0.33559,-0.1171 z m -1.23161,-0.27027 c 0,-0.0612 -0.11364,-0.1816 -0.25253,-0.26744 -0.1389,-0.0858 -0.25254,-0.0357 -0.25254,0.11136 0,0.14709 0.11364,0.26744 0.25254,0.26744 0.13889,0 0.25253,-0.0501 0.25253,-0.11136 z m -1.76776,-3.283 c 0,-0.0612 -0.11365,-0.1816 -0.25254,-0.26744 -0.1389,-0.0858 -0.25254,-0.0357 -0.25254,0.11136 0,0.1471 0.11364,0.26745 0.25254,0.26745 0.13889,0 0.25254,-0.0501 0.25254,-0.11137 z m 1.01015,-0.14117 c 0,-0.1389 -0.12035,-0.25254 -0.26744,-0.25254 -0.1471,0 -0.19721,0.11364 -0.11137,0.25254 0.0858,0.13889 0.20619,0.25254 0.26744,0.25254 0.0613,0 0.11137,-0.11365 0.11137,-0.25254 z m -66.79634,-1.26269 c 0.0858,-0.1389 0.0357,-0.25254 -0.11136,-0.25254 -0.1471,0 -0.26745,0.11364 -0.26745,0.25254 0,0.13889 0.0501,0.25254 0.11137,0.25254 0.0613,0 0.1816,-0.11365 0.26744,-0.25254 z m 64.5235,-0.86898 c 0,-0.0613 -0.11365,-0.1816 -0.25254,-0.26744 -0.1389,-0.0858 -0.25254,-0.0357 -0.25254,0.11136 0,0.14709 0.11364,0.26744 0.25254,0.26744 0.13889,0 0.25254,-0.0501 0.25254,-0.11136 z m 1.01015,-0.14117 c 0,-0.1389 -0.12035,-0.25254 -0.26744,-0.25254 -0.1471,0 -0.19721,0.11364 -0.11137,0.25254 0.0858,0.13889 0.20619,0.25253 0.26744,0.25253 0.0613,0 0.11137,-0.11364 0.11137,-0.25253 z m -64.27096,-1.2627 c 0.0859,-0.13889 0.0357,-0.25253 -0.11136,-0.25253 -0.1471,0 -0.26744,0.11364 -0.26744,0.25253 0,0.1389 0.0501,0.25254 0.11136,0.25254 0.0613,0 0.1816,-0.11364 0.26744,-0.25254 z m 62.25065,-0.3639 c 0,-0.0613 -0.11364,-0.1816 -0.25254,-0.26744 -0.13889,-0.0858 -0.25253,-0.0357 -0.25253,0.11136 0,0.1471 0.11364,0.26745 0.25253,0.26745 0.1389,0 0.25254,-0.0501 0.25254,-0.11137 z m 1.01016,-0.14117 c 0,-0.1389 -0.12035,-0.25254 -0.26745,-0.25254 -0.14709,0 -0.1972,0.11364 -0.11136,0.25254 0.0858,0.13889 0.20619,0.25254 0.26744,0.25254 0.0613,0 0.11137,-0.11365 0.11137,-0.25254 z m -62.25066,-1.26269 c 0.0858,-0.1389 0.0357,-0.25254 -0.11136,-0.25254 -0.14709,0 -0.26744,0.11364 -0.26744,0.25254 0,0.13889 0.0501,0.25254 0.11136,0.25254 0.0613,0 0.1816,-0.11365 0.26744,-0.25254 z m 60.23035,-0.3639 c 0,-0.0613 -0.11364,-0.1816 -0.25254,-0.26745 -0.13889,-0.0858 -0.25254,-0.0357 -0.25254,0.11137 0,0.14709 0.11365,0.26744 0.25254,0.26744 0.1389,0 0.25254,-0.0501 0.25254,-0.11136 z m 1.01015,-0.14118 c 0,-0.13889 -0.12035,-0.25254 -0.26744,-0.25254 -0.14709,0 -0.19721,0.11365 -0.11136,0.25254 0.0858,0.1389 0.20619,0.25254 0.26744,0.25254 0.0613,0 0.11136,-0.11364 0.11136,-0.25254 z m -60.48288,-0.75761 c 0.0858,-0.1389 0.0357,-0.25254 -0.11136,-0.25254 -0.1471,0 -0.26745,0.11364 -0.26745,0.25254 0,0.13889 0.0501,0.25254 0.11137,0.25254 0.0613,0 0.1816,-0.11365 0.26744,-0.25254 z m 58.71512,-0.36391 c 0,-0.0613 -0.11365,-0.1816 -0.25254,-0.26744 -0.1389,-0.0858 -0.25254,-0.0357 -0.25254,0.11137 0,0.14709 0.11364,0.26744 0.25254,0.26744 0.13889,0 0.25254,-0.0501 0.25254,-0.11137 z m 1.01015,-0.14117 c 0,-0.1389 -0.12035,-0.25254 -0.26744,-0.25254 -0.1471,0 -0.19721,0.11364 -0.11137,0.25254 0.0858,0.1389 0.20619,0.25254 0.26744,0.25254 0.0613,0 0.11137,-0.11364 0.11137,-0.25254 z m -58.58885,-0.61659 c 0,-0.0516 -0.22728,-0.0343 -0.50508,0.0383 -0.27779,0.0727 -0.50507,0.23647 -0.50507,0.36405 0,0.12816 0.22604,0.111 0.50507,-0.0383 0.2778,-0.14867 0.50508,-0.31249 0.50508,-0.36405 z m 56.82108,-0.50493 c 0,-0.0612 -0.11364,-0.1816 -0.25254,-0.26744 -0.13889,-0.0858 -0.25253,-0.0357 -0.25253,0.11137 0,0.14709 0.11364,0.26744 0.25253,0.26744 0.1389,0 0.25254,-0.0501 0.25254,-0.11137 z m 1.01015,-0.14117 c 0,-0.1389 -0.12035,-0.25254 -0.26744,-0.25254 -0.14709,0 -0.19721,0.11364 -0.11136,0.25254 0.0858,0.1389 0.20619,0.25254 0.26744,0.25254 0.0612,0 0.11136,-0.11364 0.11136,-0.25254 z m -56.94735,-1.01015 c 0.21548,-0.41669 0.29346,-0.75762 0.1733,-0.75762 -0.18839,0 -0.80464,1.07288 -0.80464,1.40084 0,0.31976 0.28188,0.0326 0.63134,-0.64322 z m 55.17959,-0.11137 c 0,-0.0612 -0.11364,-0.1816 -0.25254,-0.26744 -0.1389,-0.0858 -0.25254,-0.0357 -0.25254,0.11136 0,0.1471 0.11364,0.26745 0.25254,0.26745 0.1389,0 0.25254,-0.0501 0.25254,-0.11137 z m 1.01015,-0.14117 c 0,-0.1389 -0.12035,-0.25254 -0.26744,-0.25254 -0.1471,0 -0.19721,0.11364 -0.11137,0.25254 0.0858,0.1389 0.2062,0.25254 0.26745,0.25254 0.0612,0 0.11136,-0.11364 0.11136,-0.25254 z m -54.80078,-0.25254 c 0,-0.13889 -0.0501,-0.25254 -0.11136,-0.25254 -0.0613,0 -0.1816,0.11365 -0.26744,0.25254 -0.0858,0.1389 -0.0357,0.25254 0.11136,0.25254 0.14709,0 0.26744,-0.11364 0.26744,-0.25254 z m 53.03301,-0.86898 c 0,-0.0613 -0.11364,-0.1816 -0.25254,-0.26744 -0.13889,-0.0858 -0.25253,-0.0357 -0.25253,0.11136 0,0.1471 0.11364,0.26745 0.25253,0.26745 0.1389,0 0.25254,-0.0501 0.25254,-0.11137 z m 1.01016,-0.14117 c 0,-0.1389 -0.12035,-0.25254 -0.26745,-0.25254 -0.14709,0 -0.1972,0.11364 -0.11136,0.25254 0.0858,0.13889 0.20619,0.25254 0.26744,0.25254 0.0612,0 0.11137,-0.11365 0.11137,-0.25254 z m -1.51523,-0.61644 c 0,-0.0613 -0.11365,-0.1816 -0.25254,-0.26744 -0.1389,-0.0858 -0.25254,-0.0357 -0.25254,0.11136 0,0.14709 0.11364,0.26744 0.25254,0.26744 0.13889,0 0.25254,-0.0501 0.25254,-0.11136 z m -52.14913,-1.15133 c 0.0858,-0.13889 0.0357,-0.25254 -0.11136,-0.25254 -0.1471,0 -0.26745,0.11365 -0.26745,0.25254 0,0.1389 0.0501,0.25254 0.11137,0.25254 0.0613,0 0.1816,-0.11364 0.26744,-0.25254 z m 1.13642,0 c 0,-0.13889 -0.0501,-0.25254 -0.11136,-0.25254 -0.0613,0 -0.1816,0.11365 -0.26744,0.25254 -0.0858,0.1389 -0.0357,0.25254 0.11136,0.25254 0.14709,0 0.26744,-0.11364 0.26744,-0.25254 z m 51.26524,-0.25254 c 0,-0.13889 -0.12034,-0.25253 -0.26744,-0.25253 -0.14709,0 -0.19721,0.11364 -0.11136,0.25253 0.0858,0.1389 0.20619,0.25254 0.26744,0.25254 0.0612,0 0.11136,-0.11364 0.11136,-0.25254 z m -1.51522,-0.61644 c 0,-0.0613 -0.11365,-0.1816 -0.25254,-0.26744 -0.1389,-0.0858 -0.25254,-0.0357 -0.25254,0.11136 0,0.1471 0.11364,0.26745 0.25254,0.26745 0.13889,0 0.25254,-0.0501 0.25254,-0.11137 z m 1.01015,-0.14117 c 0,-0.1389 -0.12035,-0.25254 -0.26744,-0.25254 -0.1471,0 -0.19721,0.11364 -0.11137,0.25254 0.0858,0.1389 0.20619,0.25254 0.26744,0.25254 0.0613,0 0.11137,-0.11364 0.11137,-0.25254 z m -1.51523,-0.61644 c 0,-0.0613 -0.11364,-0.1816 -0.25254,-0.26744 -0.13889,-0.0858 -0.25254,-0.0357 -0.25254,0.11136 0,0.14709 0.11365,0.26744 0.25254,0.26744 0.1389,0 0.25254,-0.0501 0.25254,-0.11136 z m 1.01015,-0.14118 c 0,-0.13889 -0.12035,-0.25253 -0.26744,-0.25253 -0.14709,0 -0.19721,0.11364 -0.11136,0.25253 0.0858,0.1389 0.20619,0.25254 0.26744,0.25254 0.0613,0 0.11136,-0.11364 0.11136,-0.25254 z m -50.12882,-0.50507 c 0.0858,-0.1389 0.0357,-0.25254 -0.11136,-0.25254 -0.1471,0 -0.26745,0.11364 -0.26745,0.25254 0,0.13889 0.0501,0.25254 0.11137,0.25254 0.0613,0 0.1816,-0.11365 0.26744,-0.25254 z m 1.13642,0 c 0,-0.1389 -0.0501,-0.25254 -0.11136,-0.25254 -0.0613,0 -0.1816,0.11364 -0.26744,0.25254 -0.0858,0.13889 -0.0357,0.25254 0.11136,0.25254 0.14709,0 0.26744,-0.11365 0.26744,-0.25254 z m 47.47717,-0.11137 c 0,-0.0612 -0.11364,-0.1816 -0.25253,-0.26744 -0.1389,-0.0858 -0.25254,-0.0357 -0.25254,0.11137 0,0.14709 0.11364,0.26744 0.25254,0.26744 0.13889,0 0.25253,-0.0501 0.25253,-0.11137 z m 1.01016,-0.14117 c 0,-0.1389 -0.12035,-0.25254 -0.26745,-0.25254 -0.14709,0 -0.1972,0.11364 -0.11136,0.25254 0.0858,0.1389 0.20619,0.25254 0.26744,0.25254 0.0613,0 0.11137,-0.11364 0.11137,-0.25254 z m -1.51523,-0.61644 c 0,-0.0612 -0.11365,-0.1816 -0.25254,-0.26744 -0.1389,-0.0859 -0.25254,-0.0357 -0.25254,0.11136 0,0.14709 0.11364,0.26744 0.25254,0.26744 0.13889,0 0.25254,-0.0501 0.25254,-0.11136 z m 1.01015,-0.14117 c 0,-0.1389 -0.12035,-0.25254 -0.26744,-0.25254 -0.1471,0 -0.19721,0.11364 -0.11137,0.25254 0.0858,0.13889 0.20619,0.25253 0.26745,0.25253 0.0613,0 0.11136,-0.11364 0.11136,-0.25253 z m -48.36105,-0.25254 c 0.0858,-0.1389 0.0357,-0.25254 -0.11137,-0.25254 -0.14709,0 -0.26744,0.11364 -0.26744,0.25254 0,0.13889 0.0501,0.25254 0.11136,0.25254 0.0613,0 0.1816,-0.11365 0.26745,-0.25254 z m 1.13642,0 c 0,-0.1389 -0.0501,-0.25254 -0.11137,-0.25254 -0.0613,0 -0.1816,0.11364 -0.26744,0.25254 -0.0858,0.13889 -0.0357,0.25254 0.11137,0.25254 0.14709,0 0.26744,-0.11365 0.26744,-0.25254 z m 45.7094,-0.34789 c 0,-0.0524 -0.17306,-0.23898 -0.38459,-0.41452 -0.32157,-0.26688 -0.35852,-0.25126 -0.22552,0.0953 0.13584,0.35399 0.61011,0.60211 0.61011,0.31918 z m 1.01015,-0.15719 c 0,-0.13889 -0.12035,-0.25254 -0.26744,-0.25254 -0.14709,0 -0.19721,0.11365 -0.11136,0.25254 0.0858,0.1389 0.20619,0.25254 0.26744,0.25254 0.0612,0 0.11136,-0.11364 0.11136,-0.25254 z m -47.09836,-0.75761 c 0.0858,-0.1389 0.0357,-0.25254 -0.11136,-0.25254 -0.1471,0 -0.26745,0.11364 -0.26745,0.25254 0,0.13889 0.0501,0.25254 0.11137,0.25254 0.0613,0 0.1816,-0.11365 0.26744,-0.25254 z m 1.13642,0 c 0,-0.1389 -0.0501,-0.25254 -0.11136,-0.25254 -0.0613,0 -0.1816,0.11364 -0.26744,0.25254 -0.0858,0.13889 -0.0357,0.25254 0.11136,0.25254 0.14709,0 0.26744,-0.11365 0.26744,-0.25254 z m 45.45687,0 c 0,-0.1389 -0.12035,-0.25254 -0.26745,-0.25254 -0.14709,0 -0.1972,0.11364 -0.11136,0.25254 0.0858,0.13889 0.20619,0.25254 0.26744,0.25254 0.0612,0 0.11137,-0.11365 0.11137,-0.25254 z m -0.50508,-0.75762 c 0,-0.13889 -0.12035,-0.25254 -0.26744,-0.25254 -0.1471,0 -0.19721,0.11365 -0.11137,0.25254 0.0858,0.1389 0.2062,0.25254 0.26745,0.25254 0.0612,0 0.11136,-0.11364 0.11136,-0.25254 z m -1.26269,-0.11136 c 0,-0.0613 -0.11364,-0.1816 -0.25254,-0.26744 -0.13889,-0.0858 -0.25254,-0.0357 -0.25254,0.11136 0,0.14709 0.11365,0.26744 0.25254,0.26744 0.1389,0 0.25254,-0.0501 0.25254,-0.11136 z m -44.0679,-0.39371 c 0.0858,-0.1389 0.0357,-0.25254 -0.11137,-0.25254 -0.14709,0 -0.26744,0.11364 -0.26744,0.25254 0,0.13889 0.0501,0.25253 0.11136,0.25253 0.0613,0 0.1816,-0.11364 0.26745,-0.25253 z m 43.56282,-0.34789 c 0,-0.0524 -0.17306,-0.23898 -0.38458,-0.41453 -0.32157,-0.26687 -0.35853,-0.25125 -0.22552,0.0953 0.13583,0.35399 0.6101,0.60211 0.6101,0.31918 z m 1.01016,-0.15719 c 0,-0.1389 -0.12035,-0.25254 -0.26745,-0.25254 -0.14709,0 -0.1972,0.11364 -0.11136,0.25254 0.0858,0.1389 0.20619,0.25254 0.26744,0.25254 0.0613,0 0.11137,-0.11364 0.11137,-0.25254 z m -44.06791,-0.25254 c 0.0858,-0.13889 0.0357,-0.25254 -0.11136,-0.25254 -0.1471,0 -0.26745,0.11365 -0.26745,0.25254 0,0.1389 0.0501,0.25254 0.11137,0.25254 0.0613,0 0.1816,-0.11364 0.26744,-0.25254 z m 1.13642,0 c 0,-0.13889 -0.0501,-0.25254 -0.11136,-0.25254 -0.0612,0 -0.1816,0.11365 -0.26744,0.25254 -0.0858,0.1389 -0.0357,0.25254 0.11136,0.25254 0.14709,0 0.26744,-0.11364 0.26744,-0.25254 z m 0.50508,-0.75761 c 0,-0.1389 -0.0501,-0.25254 -0.11136,-0.25254 -0.0613,0 -0.1816,0.11364 -0.26745,0.25254 -0.0858,0.13889 -0.0357,0.25254 0.11137,0.25254 0.14709,0 0.26744,-0.11365 0.26744,-0.25254 z m 40.65864,0.15719 c 0,-0.0524 -0.17306,-0.23898 -0.38459,-0.41453 -0.32157,-0.26688 -0.35852,-0.25125 -0.22552,0.0953 0.13584,0.35399 0.61011,0.60211 0.61011,0.31918 z m -40.15356,-0.91481 c 0,-0.13889 -0.0501,-0.25253 -0.11137,-0.25253 -0.0613,0 -0.1816,0.11364 -0.26744,0.25253 -0.0858,0.1389 -0.0357,0.25254 0.11136,0.25254 0.1471,0 0.26745,-0.11364 0.26745,-0.25254 z m 40.65864,0 c 0,-0.13889 -0.12035,-0.25253 -0.26745,-0.25253 -0.14709,0 -0.1972,0.11364 -0.11136,0.25253 0.0858,0.1389 0.20619,0.25254 0.26744,0.25254 0.0612,0 0.11137,-0.11364 0.11137,-0.25254 z m -1.26269,-0.0871 c 0,-0.0479 -0.24339,-0.30362 -0.54085,-0.56822 -0.53893,-0.47937 -0.53961,-0.47906 -0.1918,0.0871 0.29665,0.48289 0.73265,0.76918 0.73265,0.48109 z m -40.0273,-0.67049 c 0.0858,-0.1389 0.0357,-0.25254 -0.11136,-0.25254 -0.1471,0 -0.26745,0.11364 -0.26745,0.25254 0,0.13889 0.0501,0.25254 0.11137,0.25254 0.0613,0 0.1816,-0.11365 0.26744,-0.25254 z m 1.13642,0 c 0,-0.1389 -0.0501,-0.25254 -0.11136,-0.25254 -0.0613,0 -0.1816,0.11364 -0.26745,0.25254 -0.0858,0.13889 -0.0357,0.25254 0.11137,0.25254 0.14709,0 0.26744,-0.11365 0.26744,-0.25254 z m 39.28007,-0.48828 c -0.0916,-0.14813 -0.28732,-0.26934 -0.43502,-0.26934 -0.16746,0 -0.1483,0.14491 0.0509,0.38492 0.34637,0.41734 0.65593,0.3242 0.38413,-0.11558 z m -39.91141,-0.26934 c 0.0858,-0.13889 0.0357,-0.25253 -0.11137,-0.25253 -0.14709,0 -0.26744,0.11364 -0.26744,0.25253 0,0.1389 0.0501,0.25254 0.11136,0.25254 0.0613,0 0.1816,-0.11364 0.26745,-0.25254 z m 1.24145,-0.16198 c 0.133,-0.34661 0.096,-0.36223 -0.22552,-0.0953 -0.43821,0.36369 -0.48382,0.50987 -0.15907,0.50987 0.12404,0 0.2971,-0.18653 0.38459,-0.41452 z m 37.27061,0.32739 c 0,-0.0479 -0.24338,-0.30361 -0.54085,-0.56821 -0.53892,-0.47937 -0.53961,-0.47906 -0.19179,0.0871 0.29665,0.48289 0.73264,0.76918 0.73264,0.48108 z m -38.00699,-0.92302 c 0.0858,-0.1389 0.0357,-0.25254 -0.11136,-0.25254 -0.14709,0 -0.26744,0.11364 -0.26744,0.25254 0,0.1389 0.0501,0.25254 0.11136,0.25254 0.0613,0 0.1816,-0.11364 0.26744,-0.25254 z m 38.39618,-0.23574 c -0.0916,-0.14813 -0.28731,-0.26934 -0.43501,-0.26934 -0.16746,0 -0.1483,0.14491 0.0509,0.38491 0.34636,0.41735 0.65592,0.32421 0.38412,-0.11557 z m -36.90219,-0.17879 c 0.13301,-0.3466 0.096,-0.36222 -0.22552,-0.0953 -0.43821,0.36368 -0.48382,0.50987 -0.15906,0.50987 0.12403,0 0.2971,-0.18654 0.38458,-0.41453 z m 35.50285,0.0797 c 0,-0.0452 -0.30339,-0.35775 -0.6742,-0.69448 l -0.6742,-0.61223 0.4848,0.68655 c 0.41172,0.58306 0.8636,0.90756 0.8636,0.62016 z m -36.23922,-0.67536 c 0.0858,-0.1389 0.0357,-0.25254 -0.11137,-0.25254 -0.14709,0 -0.26744,0.11364 -0.26744,0.25254 0,0.13889 0.0501,0.25254 0.11136,0.25254 0.0613,0 0.1816,-0.11365 0.26745,-0.25254 z m 1.49399,-0.41453 c 0.133,-0.3466 0.096,-0.36222 -0.22552,-0.0953 -0.43822,0.36369 -0.48382,0.50988 -0.15907,0.50988 0.12404,0 0.2971,-0.18654 0.38459,-0.41453 z m 34.88188,-0.32629 c -0.0915,-0.14813 -0.28731,-0.26933 -0.43501,-0.26933 -0.16746,0 -0.1483,0.1449 0.0509,0.38491 0.34636,0.41734 0.65592,0.32421 0.38412,-0.11558 z m -35.61826,-0.26933 c 0.0858,-0.1389 0.0357,-0.25254 -0.11136,-0.25254 -0.1471,0 -0.26745,0.11364 -0.26745,0.25254 0,0.13889 0.0501,0.25253 0.11137,0.25253 0.0613,0 0.1816,-0.11364 0.26744,-0.25253 z m 31.57563,-2.517 c -1.51853,-1.52325 -2.79888,-2.73162 -2.84523,-2.68527 -0.12669,0.12669 5.07104,5.38858 5.35794,5.42408 0.13653,0.0169 -0.99419,-1.21557 -2.51271,-2.73881 z m -29.93413,2.01192 c 0.14867,-0.27779 0.2271,-0.50508 0.17429,-0.50508 -0.0528,0 -0.3017,0.22729 -0.5531,0.50508 -0.2514,0.27779 -0.32983,0.50508 -0.17429,0.50508 0.15553,0 0.40443,-0.22729 0.5531,-0.50508 z m -0.63135,-0.75762 c 0.0859,-0.13889 0.0357,-0.25253 -0.11136,-0.25253 -0.14709,0 -0.26744,0.11364 -0.26744,0.25253 0,0.1389 0.0501,0.25254 0.11136,0.25254 0.0613,0 0.1816,-0.11364 0.26744,-0.25254 z m 31.3072,-2.02788 c -1.10051,-1.107 -2.11472,-2.01273 -2.25381,-2.01273 -0.13909,0 0.70458,0.96247 1.87482,2.13882 1.17024,1.17635 2.18445,2.08208 2.25381,2.01273 0.0693,-0.0694 -0.77432,-1.03183 -1.87482,-2.13882 z m -29.19099,1.01773 c 0.44648,-0.55558 0.77267,-1.01015 0.72487,-1.01015 -0.0478,0 -0.5308,0.45457 -1.07331,1.01015 -0.54251,0.55559 -0.8687,1.01015 -0.72486,1.01015 0.14384,0 0.62682,-0.45456 1.0733,-1.01015 z m -0.34079,-1.21295 c -0.16969,-0.16969 -0.89153,0.46018 -0.89153,0.77794 0,0.14341 0.22798,0.0544 0.50662,-0.19773 0.27865,-0.25217 0.45186,-0.51327 0.38491,-0.58021 z m 2.26267,-0.80472 c 0.39783,-0.41524 0.66701,-0.81128 0.5982,-0.8801 -0.0688,-0.0688 -0.50898,0.27093 -0.97815,0.75498 -0.46916,0.48406 -0.73835,0.8801 -0.5982,0.8801 0.14016,0 0.58033,-0.33974 0.97815,-0.75498 z m 2.40164,-2.37022 c 0,-0.13876 -0.34093,0.0743 -0.75762,0.47355 -0.41669,0.39921 -0.75761,0.7648 -0.75761,0.81242 0,0.0476 0.34092,-0.16547 0.75761,-0.47354 0.41669,-0.30807 0.75762,-0.67366 0.75762,-0.81243 z m 20.58045,0.85081 c -0.25217,-0.27864 -0.52529,-0.43982 -0.60695,-0.35816 -0.0816,0.0817 0.072,0.30964 0.34135,0.50662 0.69192,0.50595 0.80211,0.44437 0.2656,-0.14846 z m 0.7694,-0.73926 c -0.0915,-0.14814 -0.28731,-0.26934 -0.43501,-0.26934 -0.16746,0 -0.1483,0.1449 0.0509,0.38491 0.34636,0.41734 0.65592,0.32421 0.38412,-0.11557 z m -22.46337,-0.45689 c -0.17513,-0.17513 -0.65425,0.1807 -0.65425,0.48591 0,0.16746 0.1449,0.1483 0.38491,-0.0509 0.2117,-0.1757 0.3329,-0.37145 0.26934,-0.43502 z m 2.12367,-0.37547 c 0,-0.14781 -0.16047,-0.12327 -0.37881,0.0579 -0.20834,0.17291 -0.37881,0.35372 -0.37881,0.4018 0,0.0481 0.17047,0.022 0.37881,-0.0579 0.20835,-0.0799 0.37881,-0.26076 0.37881,-0.4018 z m 17.6726,0.17811 c -0.17569,-0.21171 -0.38519,-0.31917 -0.46555,-0.23881 -0.0803,0.0804 0.0211,0.25182 0.22539,0.38104 0.53462,0.3381 0.60447,0.29673 0.24016,-0.14223 z m 1.65695,-0.10337 c -0.0915,-0.14814 -0.28731,-0.26934 -0.43502,-0.26934 -0.16745,0 -0.14829,0.1449 0.0509,0.38491 0.34636,0.41735 0.65592,0.32421 0.38412,-0.11557 z M 259.6401,323.8951 c 0.0858,-0.13889 0.0357,-0.25254 -0.11137,-0.25254 -0.14709,0 -0.26744,0.11365 -0.26744,0.25254 0,0.1389 0.0501,0.25254 0.11136,0.25254 0.0612,0 0.1816,-0.11364 0.26745,-0.25254 z m 1.64149,0 c 0,-0.13889 -0.0501,-0.25254 -0.11136,-0.25254 -0.0613,0 -0.1816,0.11365 -0.26744,0.25254 -0.0858,0.1389 -0.0357,0.25254 0.11136,0.25254 0.14709,0 0.26744,-0.11364 0.26744,-0.25254 z m 17.67767,0 c 0,-0.13889 -0.12035,-0.25254 -0.26744,-0.25254 -0.14709,0 -0.19721,0.11365 -0.11136,0.25254 0.0858,0.1389 0.20619,0.25254 0.26744,0.25254 0.0613,0 0.11136,-0.11364 0.11136,-0.25254 z m -2.0203,-0.11136 c 0,-0.0613 -0.11364,-0.1816 -0.25254,-0.26744 -0.1389,-0.0858 -0.25254,-0.0357 -0.25254,0.11136 0,0.14709 0.11364,0.26744 0.25254,0.26744 0.1389,0 0.25254,-0.0501 0.25254,-0.11136 z m -14.89975,-0.39371 c 0,-0.1389 -0.0501,-0.25254 -0.11137,-0.25254 -0.0613,0 -0.1816,0.11364 -0.26744,0.25254 -0.0858,0.13889 -0.0357,0.25253 0.11137,0.25253 0.14709,0 0.26744,-0.11364 0.26744,-0.25253 z m 16.16244,0 c 0,-0.1389 -0.12035,-0.25254 -0.26744,-0.25254 -0.1471,0 -0.19721,0.11364 -0.11137,0.25254 0.0858,0.13889 0.20619,0.25253 0.26744,0.25253 0.0613,0 0.11137,-0.11364 0.11137,-0.25253 z m -1.26269,-0.75762 c 0,-0.13889 -0.12035,-0.25254 -0.26744,-0.25254 -0.1471,0 -0.19721,0.11365 -0.11137,0.25254 0.0858,0.1389 0.20619,0.25254 0.26744,0.25254 0.0613,0 0.11137,-0.11364 0.11137,-0.25254 z m -15.02602,-0.25254 c 0.0858,-0.13889 0.0357,-0.25253 -0.11137,-0.25253 -0.14709,0 -0.26744,0.11364 -0.26744,0.25253 0,0.1389 0.0501,0.25254 0.11137,0.25254 0.0612,0 0.1816,-0.11364 0.26744,-0.25254 z m 13.13198,-0.75761 c -0.0858,-0.1389 -0.34824,-0.2508 -0.58311,-0.24867 -0.36802,0.003 -0.37469,0.0377 -0.0482,0.24867 0.49456,0.31961 0.82887,0.31961 0.63134,0 z m -8.52842,-1.16273 c -0.0839,-0.0839 -0.30173,-0.0929 -0.48403,-0.0199 -0.20146,0.0806 -0.14162,0.14046 0.15257,0.15258 0.26622,0.011 0.41538,-0.0487 0.33146,-0.13264 z m 5.05076,0 c -0.0839,-0.0839 -0.30173,-0.0929 -0.48403,-0.0199 -0.20146,0.0806 -0.14162,0.14046 0.15258,0.15258 0.26621,0.011 0.41537,-0.0487 0.33145,-0.13264 z m -3.27773,-0.27404 c -0.24307,-0.0635 -0.64082,-0.0635 -0.88389,0 -0.24306,0.0635 -0.0442,0.11549 0.44195,0.11549 0.48613,0 0.68501,-0.052 0.44194,-0.11549 z m 2.15138,0.008 c -0.17098,-0.0692 -0.51191,-0.0734 -0.75762,-0.009 -0.24571,0.064 -0.10582,0.12063 0.31087,0.12578 0.41669,0.005 0.61772,-0.0472 0.44675,-0.11642 z"
       id="path346"
       inkscape:connector-curvature="0"
       transform="scale(0.26458333)" />
    <path
       style="fill:#d40000;fill-opacity:0;stroke-width:0.25253814"
       d="m 269.61535,403.94055 c -13.40346,-0.24336 -30.18565,-0.52853 -37.29375,-0.63371 l -12.92382,-0.19124 0.46151,-1.16132 c 4.09769,-10.31111 19.30742,-46.05562 21.34102,-50.15371 9.37091,-18.88416 17.62276,-28.57614 25.80511,-30.30866 2.00966,-0.42553 3.69463,-0.21642 6.38071,0.79186 9.11778,3.42257 19.30939,16.07518 31.40577,38.98943 l 1.66773,3.15918 0.51871,18.30656 c 0.28529,10.06861 0.51849,19.07365 0.51822,20.0112 l -4.9e-4,1.70463 -6.75539,-0.0359 c -3.71547,-0.0197 -17.72187,-0.23499 -31.12533,-0.47835 z"
       id="path348"
       inkscape:connector-curvature="0"
       transform="scale(0.26458333)" />
    <path
       style="fill:#d40000;fill-opacity:0;stroke-width:0.25253814"
       d="m 217.60933,374.27646 c -0.01,-16.25083 -0.0926,-35.59872 -0.18468,-42.99531 l -0.16733,-13.44836 44.92997,0.0638 44.92998,0.0638 0.0618,22.60216 0.0618,22.60216 -2.17097,-4.04061 c -9.11168,-16.9586 -17.0581,-28.05197 -24.38122,-34.03669 -3.38911,-2.7697 -8.62171,-5.0123 -11.69381,-5.01174 -8.39102,0.002 -17.17132,8.80168 -26.67302,26.73332 -0.75326,1.42155 -1.49403,2.58638 -1.64617,2.58852 -0.2572,0.004 -2.79505,4.33002 -5.48337,9.34779 -4.63675,8.65453 -10.43946,23.14652 -15.06664,37.62818 -1.13169,3.54185 -2.15692,6.667 -2.27829,6.9448 -0.12763,0.29209 -0.228,-11.95429 -0.23803,-29.04189 z"
       id="path350"
       inkscape:connector-curvature="0"
       transform="scale(0.26458333)" />
    <path
       style="fill:#d40000;fill-opacity:0;stroke-width:0.25253814"
       d="m 217.60933,374.27646 c -0.01,-16.25083 -0.0926,-35.59872 -0.18468,-42.99531 l -0.16733,-13.44836 44.92997,0.0638 44.92998,0.0638 0.0618,22.60216 0.0618,22.60216 -2.17097,-4.04061 c -9.11168,-16.9586 -17.0581,-28.05197 -24.38122,-34.03669 -3.38911,-2.7697 -8.62171,-5.0123 -11.69381,-5.01174 -8.39102,0.002 -17.17132,8.80168 -26.67302,26.73332 -0.75326,1.42155 -1.49403,2.58638 -1.64617,2.58852 -0.2572,0.004 -2.79505,4.33002 -5.48337,9.34779 -4.63675,8.65453 -10.43946,23.14652 -15.06664,37.62818 -1.13169,3.54185 -2.15692,6.667 -2.27829,6.9448 -0.12763,0.29209 -0.228,-11.95429 -0.23803,-29.04189 z"
       id="path352"
       inkscape:connector-curvature="0"
       transform="scale(0.26458333)" />
    <path
       style="fill:#ac9393;fill-opacity:0;stroke-width:0.25253814"
       d="m 269.61535,403.94055 c -13.40346,-0.24336 -30.18565,-0.52853 -37.29375,-0.63371 l -12.92382,-0.19124 0.46151,-1.16132 c 4.09769,-10.31111 19.30742,-46.05562 21.34102,-50.15371 9.37091,-18.88416 17.62276,-28.57614 25.80511,-30.30866 2.00966,-0.42553 3.69463,-0.21642 6.38071,0.79186 9.11778,3.42257 19.30939,16.07518 31.40577,38.98943 l 1.66773,3.15918 0.51871,18.30656 c 0.28529,10.06861 0.51849,19.07365 0.51822,20.0112 l -4.9e-4,1.70463 -6.75539,-0.0359 c -3.71547,-0.0197 -17.72187,-0.23499 -31.12533,-0.47835 z"
       id="path354"
       inkscape:connector-curvature="0"
       transform="scale(0.26458333)" />
    <path
       style="fill:#ac9393;fill-opacity:0;stroke-width:0.25253814"
       d="m 269.61535,403.94055 c -13.40346,-0.24336 -30.18565,-0.52853 -37.29375,-0.63371 l -12.92382,-0.19124 0.46151,-1.16132 c 4.09769,-10.31111 19.30742,-46.05562 21.34102,-50.15371 9.37091,-18.88416 17.62276,-28.57614 25.80511,-30.30866 2.00966,-0.42553 3.69463,-0.21642 6.38071,0.79186 9.11778,3.42257 19.30939,16.07518 31.40577,38.98943 l 1.66773,3.15918 0.51871,18.30656 c 0.28529,10.06861 0.51849,19.07365 0.51822,20.0112 l -4.9e-4,1.70463 -6.75539,-0.0359 c -3.71547,-0.0197 -17.72187,-0.23499 -31.12533,-0.47835 z"
       id="path356"
       inkscape:connector-curvature="0"
       transform="scale(0.26458333)" />
    <path
       style="fill:#ac9393;fill-opacity:0;stroke-width:0.25253814"
       d="m 269.61535,403.94055 c -13.40346,-0.24336 -30.18565,-0.52853 -37.29375,-0.63371 l -12.92382,-0.19124 0.46151,-1.16132 c 4.09769,-10.31111 19.30742,-46.05562 21.34102,-50.15371 9.37091,-18.88416 17.62276,-28.57614 25.80511,-30.30866 2.00966,-0.42553 3.69463,-0.21642 6.38071,0.79186 9.11778,3.42257 19.30939,16.07518 31.40577,38.98943 l 1.66773,3.15918 0.51871,18.30656 c 0.28529,10.06861 0.51849,19.07365 0.51822,20.0112 l -4.9e-4,1.70463 -6.75539,-0.0359 c -3.71547,-0.0197 -17.72187,-0.23499 -31.12533,-0.47835 z"
       id="path358"
       inkscape:connector-curvature="0"
       transform="scale(0.26458333)" />
  </g>
</svg>
